<?xml version="1.0" encoding="UTF-8"?>
<svg width="315px" height="434px" viewBox="0 0 315 434" version="1.1" xmlns="http://www.w3.org/2000/svg" xmlns:xlink="http://www.w3.org/1999/xlink">
    <!-- Generator: Sketch 43.1 (39012) - http://www.bohemiancoding.com/sketch -->
    <title>Step-1</title>
    <desc>Created with Sketch.</desc>
    <defs></defs>
    <g id="Static-Pages" stroke="none" stroke-width="1" fill="none" fill-rule="evenodd">
        <g id="Homepage" transform="translate(-293.000000, -6284.000000)" fill-rule="nonzero">
            <g id="Steps-Section" transform="translate(210.000000, 5902.000000)">
                <g id="Step-1" transform="translate(0.000000, 381.000000)">
                    <g id="Info" transform="translate(39.000000, 0.572087)">
                        <g id="Icon-Group" transform="translate(44.000000, 0.000000)">
                            <g id="Step-1" transform="translate(0.000000, 0.427913)">
                                <g id="XMLID_177_" transform="translate(31.643836, 186.821192)" fill="#FFF3EA">
                                    <ellipse id="Oval" cx="122.835616" cy="123.158278" rx="122.40411" ry="122.296026"></ellipse>
                                </g>
                                <g id="XMLID_544_" transform="translate(31.205479, 186.821192)" fill="#AAAAAA">
                                    <path d="M244.815068,123.158278 C244.383562,173.887417 212.452055,220.161589 164.410959,237.406623 C116.657534,254.507947 62.1438356,239.562252 29.7808219,200.617219 C-2.7260274,161.528477 -7.18493151,104.33245 18.9931507,60.7887417 C45.3150685,16.9576159 97.6712329,-6.03576159 147.726027,4.16754967 C203.965753,15.6642384 244.383562,66.1059603 244.815068,123.158278 C244.815068,124.307947 246.684932,124.307947 246.541096,123.158278 C246.109589,71.9980132 214.034247,25.2927152 165.849315,7.47284768 C116.80137,-10.6344371 60.130137,5.17350993 27.3356164,45.8430464 C-4.73972603,85.5066225 -8.76712329,142.702649 17.5547945,186.390066 C44.0205479,230.508609 96.8082192,253.933113 147.294521,244.017219 C204.684932,232.664238 246.253425,181.216556 246.684932,123.158278 C246.684932,122.008609 244.815068,122.008609 244.815068,123.158278 Z" id="Shape"></path>
                                </g>
                                <g id="XMLID_31_" transform="translate(77.232877, 202.629139)" stroke="#AAAAAA" fill="#FFFFFF">
                                    <path d="M1.44520548,0.862251656 L0.150684932,200.329801 C15.109589,212.401325 41.8630137,229.215232 79.8356164,228.640397 C113.205479,228.065563 137.657534,213.263576 151.321918,202.916556 L152.760274,1.86821192 L1.44520548,0.862251656 Z" id="Shape"></path>
                                </g>
                                <g id="XMLID_1_" transform="translate(248.835616, 100.596026)">
                                    <path d="M49.7671233,59.4953642 L65.8767123,19.113245 C66.1643836,18.5384106 65.8767123,17.9635762 65.3013699,17.6761589 L22.2945205,0.718543046 C21.7191781,0.431125828 21.1438356,0.718543046 20.8561644,1.29337748 L4.74657534,41.6754967 L0.431506849,48.4298013 C0.143835616,49.0046358 0.287671233,49.5794702 0.719178082,49.8668874 C0.719178082,49.8668874 0.863013699,49.8668874 0.863013699,50.010596 C1.29452055,50.1543046 1.86986301,50.010596 2.15753425,49.5794702 L6.04109589,43.5437086 L47.4657534,59.9264901 L46.1712329,66.9682119 C46.0273973,67.5430464 46.3150685,67.9741722 46.890411,68.1178808 L47.0342466,68.1178808 C47.609589,68.2615894 48.1849315,67.8304636 48.3287671,67.2556291 L49.7671233,59.4953642 Z" id="XMLID_708_" fill="#008756"></path>
                                    <rect id="XMLID_707_" fill="#CFFFEA" transform="translate(35.284380, 30.388235) rotate(21.696083) translate(-35.284380, -30.388235) " x="13.2765322" y="9.76511357" width="44.0156953" height="41.2462419"></rect>
                                    <path d="M19.9931507,23.1370861 L51.7808219,35.7834437 C52.3561644,36.0708609 52.9315068,35.7834437 53.2191781,35.2086093 L58.2534247,22.5622517 C58.5410959,21.9874172 58.2534247,21.4125828 57.6780822,21.1251656 L25.890411,8.47880795 C25.3150685,8.19139073 24.739726,8.47880795 24.4520548,9.05364238 L19.4178082,21.7 C19.130137,22.2748344 19.4178082,22.9933775 19.9931507,23.1370861 Z" id="XMLID_722_" fill="#008756"></path>
                                    <rect id="XMLID_721_" fill="#CFFFEA" transform="translate(38.764353, 22.232678) rotate(-158.303917) translate(-38.764353, -22.232678) " x="22.7259543" y="16.5559299" width="32.0767975" height="11.3534951"></rect>
                                    <path d="M13.3767123,39.5198675 L45.1643836,52.1662252 C45.739726,52.4536424 46.3150685,52.1662252 46.6027397,51.5913907 L51.6369863,38.9450331 C51.9246575,38.3701987 51.6369863,37.7953642 51.0616438,37.507947 L19.2739726,24.8615894 C18.6986301,24.5741722 18.1232877,24.8615894 17.8356164,25.4364238 L12.8013699,38.0827815 C12.6575342,38.8013245 12.9452055,39.3761589 13.3767123,39.5198675 Z" id="XMLID_714_" fill="#008756"></path>
                                    <rect id="XMLID_713_" fill="#CFFFEA" transform="translate(32.185240, 38.558191) rotate(-158.303917) translate(-32.185240, -38.558191) " x="16.1468413" y="32.8814435" width="32.0767975" height="11.3534951"></rect>
                                    <path d="M45.1643836,20.2629139 L35.3835616,16.3827815 C34.8082192,16.0953642 34.2328767,16.3827815 33.9452055,16.9576159 C33.6575342,17.5324503 33.9452055,18.1072848 34.5205479,18.394702 L44.3013699,22.2748344 C44.8767123,22.5622517 45.4520548,22.2748344 45.739726,21.7 C46.0273973,21.1251656 45.739726,20.4066225 45.1643836,20.2629139 Z" id="XMLID_710_" fill="#008756"></path>
                                    <path d="M38.6917808,36.6456954 L28.9109589,32.7655629 C28.3356164,32.4781457 27.760274,32.7655629 27.4726027,33.3403974 C27.1849315,33.9152318 27.4726027,34.4900662 28.0479452,34.7774834 L37.8287671,38.6576159 C38.4041096,38.9450331 38.9794521,38.6576159 39.2671233,38.0827815 C39.4109589,37.507947 39.1232877,36.9331126 38.6917808,36.6456954 Z" id="XMLID_709_" fill="#008756"></path>
                                </g>
                                <g id="XMLID_3_" transform="translate(140.958904, 22.993377)">
                                    <path d="M42.5753425,5.46092715 L19.7054795,0.143708609 C16.6849315,-0.574834437 13.8082192,1.5807947 12.9452055,5.17350993 L1.00684932,56.0463576 C0.575342466,57.6271523 1.29452055,59.7827815 2.87671233,61.0761589 L0.863013699,65.1 C0.575342466,65.5311258 0.863013699,66.1059603 1.29452055,66.3933775 C1.29452055,66.3933775 1.43835616,66.3933775 1.43835616,66.5370861 C1.86986301,66.6807947 2.30136986,66.3933775 2.44520548,66.1059603 L4.45890411,62.2258278 C4.60273973,62.3695364 4.89041096,62.3695364 5.03424658,62.3695364 L27.9041096,67.686755 C28.1917808,67.686755 28.4794521,67.8304636 28.7671233,67.8304636 L28.7671233,72.2854305 C28.7671233,72.7165563 29.0547945,73.1476821 29.4863014,73.1476821 L29.7739726,73.1476821 C30.3493151,73.1476821 30.6369863,72.7165563 30.6369863,72.1417219 L30.6369863,67.5430464 C32.5068493,66.9682119 33.9452055,65.5311258 34.3767123,63.9503311 L46.3150685,13.0774834 C47.1780822,9.3410596 45.5958904,6.1794702 42.5753425,5.46092715 Z" id="XMLID_742_" fill="#ED6420"></path>
                                    <path d="M19.130137,1.86821192 L42,7.18543046 C44.0136986,7.61655629 45.0205479,9.77218543 44.3013699,12.3589404 L40.4178082,28.7417219 L10.6438356,21.7 L14.5273973,5.31721854 C15.390411,3.01788079 17.260274,1.43708609 19.130137,1.86821192 Z" id="XMLID_741_" fill="#FFF4D8"></path>
                                    <path d="M28.3356164,65.6748344 L5.46575342,60.3576159 C3.59589041,59.9264901 2.44520548,57.9145695 2.73287671,56.4774834 L10.3561644,23.8556291 L40.130137,30.897351 L32.5068493,63.5192053 C32.2191781,64.8125828 30.2054795,66.1059603 28.3356164,65.6748344 Z" id="XMLID_740_" fill="#FFF4D8"></path>
                                    <path d="M35.3835616,32.9092715 C34.9520548,32.7655629 34.3767123,33.0529801 34.2328767,33.6278146 L31.2123288,46.2741722 C31.0684932,46.705298 31.3561644,47.2801325 31.9315068,47.4238411 C32.3630137,47.5675497 32.9383562,47.2801325 33.0821918,46.705298 L36.1027397,34.0589404 C36.2465753,33.484106 35.9589041,33.0529801 35.3835616,32.9092715 Z" id="XMLID_738_" fill="#ED6420"></path>
                                    <path d="M37.2534247,24.8615894 C37.6849315,25.005298 38.260274,24.7178808 38.4041096,24.1430464 L40.4178082,15.6642384 C40.5616438,15.2331126 40.2739726,14.6582781 39.6986301,14.5145695 C39.2671233,14.3708609 38.6917808,14.6582781 38.5479452,15.2331126 L36.5342466,23.7119205 C36.5342466,24.286755 36.8219178,24.7178808 37.2534247,24.8615894 Z" id="XMLID_737_" fill="#ED6420"></path>
                                </g>
                                <g id="XMLID_2_" transform="translate(0.000000, 93.410596)">
                                    <path d="M86.8767123,36.3582781 L81.8424658,31.0410596 C81.8424658,31.0410596 81.6986301,31.0410596 81.6986301,30.897351 C81.6986301,30.6099338 81.5547945,30.3225166 81.4109589,30.0350993 L74.2191781,18.2509934 C73.5,17.1013245 72.0616438,16.8139073 70.9109589,17.3887417 L69.1849315,18.6821192 C68.0342466,17.1013245 65.3013699,16.5264901 62.4246575,16.3827815 L56.5273973,6.61059603 C52.9315068,0.862251656 48.1849315,-0.574834437 42.8630137,2.58675497 L4.89041096,25.5801325 C-0.431506849,28.7417219 -1.29452055,33.7715232 2.15753425,39.5198675 L8.19863014,49.4357616 C7.04794521,51.8788079 6.18493151,54.6092715 7.19178082,56.4774834 L5.32191781,57.4834437 C4.17123288,58.2019868 3.88356164,59.6390728 4.45890411,60.7887417 L11.6506849,72.5728477 C11.7945205,72.8602649 11.9383562,73.0039735 12.2260274,73.1476821 L12.2260274,73.4350993 L14.6712329,80.3331126 C14.8150685,80.907947 15.5342466,81.1953642 16.109589,81.0516556 C16.2534247,81.0516556 16.2534247,81.0516556 16.2534247,80.907947 C16.6849315,80.6205298 16.8287671,80.189404 16.6849315,79.6145695 L14.5273973,73.4350993 C14.6712329,73.4350993 14.8150685,73.2913907 14.9589041,73.2913907 L80.6917808,33.3403974 C80.8356164,33.3403974 80.8356164,33.1966887 80.9794521,33.1966887 L85.4383562,37.9390728 C85.7260274,38.3701987 86.3013699,38.3701987 86.7328767,38.0827815 L86.8767123,37.9390728 C87.3082192,37.507947 87.3082192,36.789404 86.8767123,36.3582781 Z" id="XMLID_750_" fill="#0078E5"></path>
                                    <path d="M4.02739726,38.3701987 C1.15068493,33.484106 1.7260274,29.8913907 6.04109589,27.3046358 L44.0136986,4.31125828 C48.3287671,1.72450331 51.7808219,2.73046358 54.8013699,7.61655629 L60.1232877,16.2390728 C58.6849315,16.2390728 57.2465753,16.3827815 56.5273973,16.5264901 L56.0958904,15.9516556 C55.6643836,15.2331126 52.2123288,11.784106 49.9109589,12.0715232 C47.8972603,12.3589404 44.1575342,14.0834437 41.5684932,15.6642384 C38.9794521,17.2450331 35.6712329,19.8317881 34.5205479,21.4125828 C33.2260274,23.2807947 34.6643836,28.0231788 35.0958904,28.5980132 L35.3835616,29.0291391 L32.3630137,30.897351 L32.0753425,30.4662252 C31.6438356,29.7476821 28.1917808,26.2986755 25.890411,26.5860927 C23.8767123,26.8735099 20.1369863,28.5980132 17.5479452,30.1788079 C14.9589041,31.7596026 11.6506849,34.3463576 10.5,35.9271523 C9.20547945,37.7953642 10.6438356,42.5377483 11.0753425,43.1125828 L11.5068493,43.8311258 C11.0753425,44.5496689 10.2123288,45.5556291 9.49315068,46.9927152 L4.02739726,38.3701987 L4.02739726,38.3701987 Z" id="XMLID_749_" fill="#EDF9FF"></path>
                                    <path d="M36.9657534,28.0231788 L36.6780822,27.592053 C36.2465753,26.8735099 35.5273973,23.4245033 35.9589041,22.7059603 C36.6780822,21.7 39.4109589,19.2569536 42.2876712,17.5324503 C45.1643836,15.807947 48.6164384,14.3708609 49.7671233,14.2271523 C50.630137,14.0834437 53.3630137,16.3827815 53.7945205,17.1013245 L54.0821918,17.3887417 L36.9657534,28.0231788 Z" id="XMLID_748_" fill="#EDF9FF"></path>
                                    <path d="M13.0890411,42.681457 L12.8013699,42.2503311 C12.369863,41.5317881 11.6506849,38.0827815 12.0821918,37.3642384 C12.8013699,36.3582781 15.5342466,33.9152318 18.4109589,32.1907285 C21.2876712,30.4662252 24.739726,29.0291391 25.890411,28.8854305 C26.7534247,28.7417219 29.4863014,31.0410596 29.9178082,31.7596026 L30.2054795,32.1907285 L13.0890411,42.681457 Z" id="XMLID_747_" fill="#EDF9FF"></path>
                                    <path d="M13.2328767,44.9807947 L56.239726,18.6821192 C60.1232877,18.2509934 66.0205479,18.2509934 67.4589041,19.6880795 L9.06164384,55.184106 C8.34246575,53.315894 10.9315068,48.2860927 13.2328767,44.9807947 Z" id="XMLID_746_" fill="#EDF9FF"></path>
                                    <path d="M13.8082192,71.4231788 C13.6643836,71.4231788 13.5205479,71.4231788 13.3767123,71.1357616 L6.18493151,59.3516556 L6.47260274,59.3516556 L72.2054795,19.4006623 C72.3493151,19.4006623 72.3493151,19.2569536 72.3493151,19.2569536 L79.5410959,31.0410596 C79.6849315,31.1847682 79.6849315,31.4721854 79.5410959,31.4721854 L13.8082192,71.4231788 Z" id="XMLID_744_" fill="#ECF9FF"></path>
                                </g>
                                <path d="M78.8219178,203.347682 L230.136986,204.64106 L228.410959,407.413907 L236.465753,400.803311 L238.335616,185.384106 C238.479452,173.6 228.986301,164.115232 217.191781,163.971523 L92.3424658,162.821854 C80.5479452,162.678146 71.0547945,172.162914 70.9109589,183.803311 L69.1849315,397.066887 L77.0958904,403.964901 L78.8219178,203.347682 Z" id="XMLID_33_" fill="#F4F4F4"></path>
                                <path d="M206.691781,385.857616 L99.9657534,385.139073 C95.3630137,385.139073 91.7671233,381.402649 91.7671233,376.803974 L91.9109589,364.588742 C91.9109589,359.990066 95.6506849,356.397351 100.253425,356.397351 L206.979452,357.115894 C211.582192,357.115894 215.178082,360.852318 215.178082,365.450993 L215.034247,377.666225 C215.034247,382.264901 211.294521,385.857616 206.691781,385.857616 Z" id="XMLID_206_" fill="#05C1A1"></path>
                                <g id="XMLID_224_" transform="translate(141.958904, 186.384106)" fill="#AAAAAA">
                                    <path d="M0.869863014,2.01788079 C8.6369863,2.01788079 16.260274,2.1615894 24.0273973,2.1615894 C25.1780822,2.1615894 25.1780822,0.437086093 24.0273973,0.437086093 C16.260274,0.437086093 8.6369863,0.293377483 0.869863014,0.293377483 C-0.280821918,0.293377483 -0.280821918,2.01788079 0.869863014,2.01788079 L0.869863014,2.01788079 Z" id="Shape"></path>
                                </g>
                                <g id="XMLID_223_" transform="translate(150.589041, 173.887417)" fill="#AAAAAA">
                                    <path d="M7.7739726,4.16754967 C7.63013699,2.01192053 6.04794521,0.287417219 3.89041096,0.287417219 C1.73287671,0.287417219 0.00684931507,2.01192053 0.00684931507,4.16754967 C0.00684931507,6.1794702 1.5890411,7.90397351 3.74657534,8.04768212 C6.04794521,8.19139073 7.63013699,6.46688742 7.7739726,4.16754967 C7.7739726,3.01788079 6.04794521,3.01788079 6.04794521,4.16754967 C5.90410959,6.89801325 1.87671233,6.75430464 1.87671233,4.16754967 C1.87671233,1.43708609 5.90410959,1.5807947 6.04794521,4.16754967 C6.04794521,5.31721854 7.91780822,5.31721854 7.7739726,4.16754967 Z" id="Shape"></path>
                                </g>
                                <g id="XMLID_281_" transform="translate(87.739726, 251.052980)">
                                    <ellipse id="XMLID_604_" fill="#00BFA3" cx="29.9178082" cy="29.4662252" rx="29.1986301" ry="29.1728477"></ellipse>
                                    <g id="XMLID_605_" transform="translate(12.506849, 15.724549)" fill="#FFFFFF">
                                        <path d="M17.4109589,0.143708609 C17.2671233,0.143708609 17.1232877,0.143708609 16.8356164,0.287417219 L0.726027397,13.0774834 C0.294520548,13.3649007 0.294520548,13.9397351 0.582191781,14.2271523 C0.869863014,14.5145695 1.44520548,14.6582781 1.73287671,14.3708609 L17.4109589,2.01192053 L33.0890411,14.3708609 C33.3767123,14.6582781 33.9520548,14.6582781 34.239726,14.2271523 C34.5273973,13.9397351 34.5273973,13.3649007 34.0958904,13.0774834 L28.0547945,8.33509934 L28.0547945,1.00596026 C28.0547945,0.574834437 27.6232877,0.143708609 27.1917808,0.143708609 L23.739726,0.143708609 C23.3082192,0.143708609 22.8767123,0.574834437 22.8767123,1.00596026 L22.8767123,4.31125828 L17.8424658,0.431125828 C17.6986301,0.143708609 17.5547945,0.143708609 17.4109589,0.143708609 Z M24.6027397,1.86821192 L26.3287671,1.86821192 L26.3287671,6.89801325 L24.6027397,5.60463576 L24.6027397,1.86821192 Z M6.76712329,11.4966887 L5.04109589,12.7900662 L5.04109589,26.2986755 C5.04109589,26.7298013 5.47260274,27.1609272 5.90410959,27.1609272 L13.9589041,27.1609272 C14.390411,27.1609272 14.8219178,26.7298013 14.8219178,26.2986755 L14.8219178,18.6821192 L19.8561644,18.6821192 L19.8561644,26.2986755 C19.8561644,26.7298013 20.2876712,27.1609272 20.7191781,27.1609272 L28.7739726,27.1609272 C29.2054795,27.1609272 29.6369863,26.7298013 29.6369863,26.2986755 L29.6369863,12.7900662 L27.9109589,11.4966887 L27.9109589,25.5801325 L21.5821918,25.5801325 L21.5821918,17.9635762 C21.5821918,17.5324503 21.1506849,17.1013245 20.7191781,17.1013245 L13.9589041,17.1013245 C13.5273973,17.1013245 13.0958904,17.5324503 13.0958904,17.9635762 L13.0958904,25.5801325 L6.76712329,25.5801325 L6.76712329,11.4966887 Z" id="XMLID_606_"></path>
                                    </g>
                                </g>
                                <g id="XMLID_11_" transform="translate(161.095890, 251.052980)">
                                    <ellipse id="XMLID_675_" fill="#B7B7B7" cx="29.3424658" cy="29.4662252" rx="29.1986301" ry="29.1728477"></ellipse>
                                    <g id="XMLID_351_" transform="translate(17.260274, 14.807947)" fill="#FFFFFF">
                                        <path d="M4.45890411,5.74834437 L9.78082192,5.74834437 C10.2123288,5.74834437 10.5,5.46092715 10.5,5.02980132 C10.5,4.5986755 10.2123288,4.31125828 9.78082192,4.31125828 L4.45890411,4.31125828 C4.02739726,4.31125828 3.73972603,4.5986755 3.73972603,5.02980132 C3.73972603,5.46092715 4.02739726,5.74834437 4.45890411,5.74834437 Z" id="XMLID_591_"></path>
                                        <path d="M4.45890411,9.91589404 L9.78082192,9.91589404 C10.2123288,9.91589404 10.5,9.62847682 10.5,9.19735099 C10.5,8.76622517 10.2123288,8.47880795 9.78082192,8.47880795 L4.45890411,8.47880795 C4.02739726,8.47880795 3.73972603,8.76622517 3.73972603,9.19735099 C3.73972603,9.62847682 4.02739726,9.91589404 4.45890411,9.91589404 Z" id="XMLID_590_"></path>
                                        <path d="M4.45890411,13.9397351 L9.78082192,13.9397351 C10.2123288,13.9397351 10.5,13.6523179 10.5,13.2211921 C10.5,12.7900662 10.2123288,12.502649 9.78082192,12.502649 L4.45890411,12.502649 C4.02739726,12.502649 3.73972603,12.7900662 3.73972603,13.2211921 C3.73972603,13.6523179 4.02739726,13.9397351 4.45890411,13.9397351 Z" id="XMLID_589_"></path>
                                        <path d="M4.45890411,18.1072848 L9.78082192,18.1072848 C10.2123288,18.1072848 10.5,17.8198675 10.5,17.3887417 C10.5,16.9576159 10.2123288,16.6701987 9.78082192,16.6701987 L4.45890411,16.6701987 C4.02739726,16.6701987 3.73972603,16.9576159 3.73972603,17.3887417 C3.73972603,17.8198675 4.02739726,18.1072848 4.45890411,18.1072848 Z" id="XMLID_588_"></path>
                                        <path d="M16.5410959,19.6880795 L21,19.6880795 C21.8630137,19.6880795 22.5821918,19.4006623 22.5821918,18.9695364 C22.5821918,18.5384106 21.8630137,18.2509934 21,18.2509934 L16.5410959,18.2509934 C15.6780822,18.2509934 14.9589041,18.5384106 14.9589041,18.9695364 C14.9589041,19.4006623 15.6780822,19.6880795 16.5410959,19.6880795 Z" id="XMLID_583_"></path>
                                        <path d="M16.5410959,23.4245033 L21,23.4245033 C21.8630137,23.4245033 22.5821918,23.1370861 22.5821918,22.7059603 C22.5821918,22.2748344 21.8630137,21.9874172 21,21.9874172 L16.5410959,21.9874172 C15.6780822,21.9874172 14.9589041,22.2748344 14.9589041,22.7059603 C14.9589041,23.1370861 15.6780822,23.4245033 16.5410959,23.4245033 Z" id="XMLID_575_"></path>
                                        <path d="M24.4520548,14.5145695 L15.8219178,10.9218543 C15.5342466,10.7781457 15.1027397,10.9218543 14.9589041,11.3529801 C14.8150685,11.6403974 14.9589041,12.0715232 15.390411,12.2152318 L23.5890411,15.6642384 L23.5890411,27.1609272 L13.6643836,27.1609272 L13.6643836,10.9218543 C13.6643836,10.9218543 13.6643836,10.9218543 13.6643836,10.7781457 L13.6643836,1.43708609 C13.6643836,1.00596026 13.3767123,0.718543046 12.9452055,0.718543046 L1.43835616,0.718543046 C1.00684932,0.718543046 0.719178082,1.00596026 0.719178082,1.43708609 L0.719178082,27.7357616 C0.719178082,28.1668874 1.00684932,28.4543046 1.43835616,28.4543046 L12.8013699,28.4543046 L12.9452055,28.4543046 L24.3082192,28.4543046 C24.739726,28.4543046 25.0273973,28.1668874 25.0273973,27.7357616 L25.0273973,15.089404 C24.8835616,14.8019868 24.739726,14.5145695 24.4520548,14.5145695 Z M8.34246575,27.1609272 L5.75342466,27.1609272 L5.75342466,22.9933775 L8.34246575,22.9933775 L8.34246575,27.1609272 Z M12.0821918,27.1609272 L9.78082192,27.1609272 L9.78082192,22.2748344 C9.78082192,21.8437086 9.49315068,21.5562914 9.06164384,21.5562914 L5.03424658,21.5562914 C4.60273973,21.5562914 4.31506849,21.8437086 4.31506849,22.2748344 L4.31506849,27.1609272 L2.01369863,27.1609272 L2.01369863,2.15562914 L12.0821918,2.15562914 L12.0821918,27.1609272 Z" id="XMLID_363_"></path>
                                    </g>
                                </g>
                                <g id="XMLID_64_" transform="translate(136.643836, 366.019868)" fill="#FFFFFF">
                                    <path d="M0.575342466,0.437086093 C0.575342466,0.293377483 0.719178082,0.149668874 0.863013699,0.149668874 L1.15068493,0.149668874 L7.19178082,7.04768212 L7.19178082,7.04768212 L7.19178082,0.580794702 C7.19178082,0.437086093 7.33561644,0.293377483 7.47945205,0.293377483 L8.34246575,0.293377483 C8.48630137,0.293377483 8.63013699,0.437086093 8.63013699,0.580794702 L8.63013699,9.9218543 C8.63013699,10.0655629 8.48630137,10.2092715 8.34246575,10.2092715 L8.05479452,10.2092715 L2.01369863,3.02384106 L2.01369863,3.02384106 L2.01369863,9.7781457 C2.01369863,9.9218543 1.86986301,10.0655629 1.7260274,10.0655629 L0.863013699,10.0655629 C0.719178082,10.0655629 0.575342466,9.9218543 0.575342466,9.7781457 L0.575342466,0.437086093 Z" id="XMLID_66_"></path>
                                    <path d="M11.2191781,0.580794702 C11.2191781,0.437086093 11.3630137,0.293377483 11.5068493,0.293377483 L16.9726027,0.293377483 C17.1164384,0.293377483 17.260274,0.437086093 17.260274,0.580794702 L17.260274,1.29933775 C17.260274,1.44304636 17.1164384,1.58675497 16.9726027,1.58675497 L12.6575342,1.58675497 L12.6575342,4.46092715 L16.3972603,4.46092715 C16.5410959,4.46092715 16.6849315,4.60463576 16.6849315,4.74834437 L16.6849315,5.46688742 C16.6849315,5.61059603 16.5410959,5.75430464 16.3972603,5.75430464 L12.6575342,5.75430464 L12.6575342,8.77218543 L16.9726027,8.77218543 C17.1164384,8.77218543 17.260274,8.91589404 17.260274,9.05960265 L17.260274,9.7781457 C17.260274,9.9218543 17.1164384,10.0655629 16.9726027,10.0655629 L11.5068493,10.0655629 C11.3630137,10.0655629 11.2191781,9.9218543 11.2191781,9.7781457 L11.2191781,0.580794702 Z" id="XMLID_68_"></path>
                                    <path d="M21.4315068,5.03576159 L18.6986301,0.724503311 C18.5547945,0.580794702 18.6986301,0.293377483 18.9863014,0.293377483 L20.1369863,0.293377483 C20.2808219,0.293377483 20.2808219,0.293377483 20.4246575,0.437086093 L22.4383562,3.74238411 L22.4383562,3.74238411 L24.4520548,0.437086093 C24.4520548,0.437086093 24.5958904,0.293377483 24.739726,0.293377483 L25.890411,0.293377483 C26.1780822,0.293377483 26.1780822,0.437086093 26.1780822,0.724503311 L23.4452055,5.03576159 L26.3219178,9.63443709 C26.4657534,9.7781457 26.3219178,10.0655629 26.0342466,10.0655629 L25.0273973,10.0655629 C24.8835616,10.0655629 24.8835616,10.0655629 24.739726,9.9218543 L22.5821918,6.32913907 L22.5821918,6.32913907 L20.4246575,9.9218543 C20.4246575,9.9218543 20.2808219,10.0655629 20.1369863,10.0655629 L19.130137,10.0655629 C18.8424658,10.0655629 18.8424658,9.9218543 18.8424658,9.63443709 L21.4315068,5.03576159 Z" id="XMLID_145_"></path>
                                    <path d="M29.1986301,1.58675497 L26.8972603,1.58675497 C26.7534247,1.58675497 26.609589,1.44304636 26.609589,1.29933775 L26.609589,0.580794702 C26.609589,0.437086093 26.7534247,0.293377483 26.8972603,0.293377483 L32.7945205,0.293377483 C32.9383562,0.293377483 33.0821918,0.437086093 33.0821918,0.580794702 L33.0821918,1.29933775 C33.0821918,1.44304636 32.9383562,1.58675497 32.7945205,1.58675497 L30.4931507,1.58675497 L30.4931507,9.63443709 C30.4931507,9.7781457 30.3493151,9.9218543 30.2054795,9.9218543 L29.3424658,9.9218543 C29.1986301,9.9218543 29.0547945,9.7781457 29.0547945,9.63443709 L29.0547945,1.58675497 L29.1986301,1.58675497 Z" id="XMLID_150_"></path>
                                </g>
                                <g id="XMLID_30_" transform="translate(67.602740, 161.953642)" fill="#AAAAAA">
                                    <path d="M11.0753425,42.4 C60.4109589,42.8311258 109.746575,43.118543 159.082192,43.5496689 C159.945205,43.5496689 161.09589,43.4059603 161.958904,43.5496689 C163.109589,43.6933775 161.239726,41.9688742 161.527397,42.9748344 C161.958904,44.8430464 161.527397,47.2860927 161.527397,49.2980132 C161.383562,59.9324503 161.383562,70.4231788 161.239726,81.0576159 C160.952055,113.823179 160.808219,146.588742 160.520548,179.354305 C160.376712,201.48543 160.232877,223.472848 160.089041,245.603974 C160.089041,246.466225 161.09589,246.753642 161.671233,246.178808 C164.40411,243.735762 169.150685,241.580132 170.013699,238.131126 C170.445205,236.406623 170.013699,234.107285 170.013699,232.382781 C170.013699,223.760265 170.157534,215.137748 170.157534,206.65894 C170.30137,179.066887 170.589041,151.618543 170.732877,124.02649 C170.876712,97.8715232 171.164384,71.5728477 171.308219,45.4178808 C171.452055,30.3284768 175.047945,9.49072848 157.356164,2.73642384 C151.171233,0.437086093 143.691781,1.15562914 137.075342,1.15562914 C124.417808,1.01192053 111.760274,1.01192053 99.1027397,0.868211921 C75.2260274,0.724503311 51.2054795,0.437086093 27.3287671,0.293377483 C16.3972603,0.293377483 6.32876712,5.1794702 3.16438356,16.3887417 C1.86986301,20.9874172 2.30136986,26.1609272 2.30136986,30.9033113 C2.15753425,53.4655629 2.01369863,75.884106 1.86986301,98.4463576 C1.7260274,127.475497 1.43835616,156.648344 1.29452055,185.677483 C1.15068493,196.455629 1.15068493,207.377483 1.00684932,218.155629 C1.00684932,223.041722 -0.287671233,229.939735 0.863013699,234.682119 C1.7260274,238.131126 6.47260274,240.717881 9.06164384,242.87351 C9.6369863,243.304636 10.6438356,243.017219 10.6438356,242.298675 C11.0753425,183.665563 11.5068493,124.888742 11.9383562,66.2556291 C11.9383562,58.0642384 12.0821918,49.8728477 12.0821918,41.5377483 C12.0821918,40.3880795 10.3561644,40.3880795 10.3561644,41.5377483 C9.92465753,100.170861 9.49315068,158.947682 9.06164384,217.580795 C9.06164384,225.772185 8.91780822,233.963576 8.91780822,242.298675 C9.49315068,242.154967 9.92465753,241.86755 10.5,241.723841 C7.62328767,239.280795 3.59589041,237.412583 2.73287671,233.963576 C2.30136986,232.095364 2.73287671,229.364901 2.73287671,227.496689 C2.73287671,219.017881 2.87671233,210.395364 2.87671233,201.916556 C3.02054795,175.617881 3.30821918,149.462914 3.45205479,123.164238 C3.59589041,98.0152318 3.88356164,72.8662252 4.02739726,47.7172185 C4.17123288,30.615894 3.06754622e-13,3.16754967 24.739726,2.1615894 C42.5753425,1.44304636 60.6986301,2.44900662 78.6780822,2.59271523 C101.40411,2.73642384 124.273973,2.73642384 147,3.02384106 C159.657534,3.16754967 169.438356,10.6403974 169.869863,24.005298 C170.013699,28.7476821 169.869863,33.6337748 169.726027,38.3761589 C169.582192,61.513245 169.438356,84.6503311 169.150685,107.787417 C169.006849,135.235762 168.719178,162.684106 168.575342,190.13245 C168.431507,200.623179 168.431507,211.113907 168.287671,221.460927 C168.287671,226.059603 169.582192,233.388742 168.143836,237.843709 C167.280822,240.717881 162.965753,242.729801 160.376712,245.172848 C160.952055,245.316556 161.383562,245.603974 161.958904,245.747682 C162.390411,186.539735 162.821918,127.475497 163.253425,68.2675497 C163.253425,59.7887417 163.39726,51.3099338 163.39726,42.8311258 C163.39726,42.4 162.965753,41.9688742 162.534247,41.9688742 C118.376712,41.681457 74.2191781,41.3940397 30.2054795,40.9629139 C23.8767123,40.9629139 17.5479452,40.8192053 11.2191781,40.8192053 C9.92465753,40.5317881 9.92465753,42.4 11.0753425,42.4 Z" id="Shape"></path>
                                </g>
                                <g id="XMLID_241_" transform="translate(257.027397, 195.443709)" fill="#48BEFF">
                                    <g id="XMLID_265_" transform="translate(7.630137, 0.000000)">
                                        <g id="XMLID_266_">
                                            <path d="M2.01369863,18.9695364 C1.43835616,18.9695364 0.863013699,18.5384106 0.863013699,17.8198675 L0.575342466,1.5807947 C0.575342466,1.00596026 1.00684932,0.431125828 1.7260274,0.431125828 C2.30136986,0.431125828 2.87671233,0.862251656 2.87671233,1.5807947 L3.16438356,17.8198675 C3.16438356,18.394702 2.73287671,18.9695364 2.01369863,18.9695364 Z" id="XMLID_279_"></path>
                                        </g>
                                    </g>
                                    <g id="XMLID_246_" transform="translate(0.000000, 8.185430)">
                                        <g id="XMLID_247_">
                                            <path d="M1.44520548,2.73642384 C0.869863014,2.73642384 0.294520548,2.30529801 0.294520548,1.58675497 C0.294520548,1.01192053 0.726027397,0.437086093 1.44520548,0.437086093 L17.6986301,0.149668874 C18.2739726,0.149668874 18.8493151,0.580794702 18.8493151,1.29933775 C18.8493151,1.87417219 18.4178082,2.44900662 17.6986301,2.44900662 L1.44520548,2.73642384 Z" id="XMLID_248_"></path>
                                        </g>
                                    </g>
                                </g>
                                <g id="XMLID_228_" transform="translate(27.328767, 209.377483)" fill="#ED6420">
                                    <g id="XMLID_229_">
                                        <path d="M6.47260274,12.9397351 C3.02054795,12.9397351 0.143835616,10.0655629 0.143835616,6.61655629 C0.143835616,3.16754967 3.02054795,0.293377483 6.47260274,0.293377483 C9.92465753,0.293377483 12.8013699,3.16754967 12.8013699,6.61655629 C12.8013699,10.0655629 9.92465753,12.9397351 6.47260274,12.9397351 Z M6.47260274,2.01788079 C4.02739726,2.01788079 1.86986301,4.02980132 1.86986301,6.61655629 C1.86986301,9.05960265 3.88356164,11.2152318 6.47260274,11.2152318 C9.06164384,11.2152318 11.0753425,9.20331126 11.0753425,6.61655629 C11.0753425,4.17350993 9.06164384,2.01788079 6.47260274,2.01788079 Z" id="XMLID_233_"></path>
                                    </g>
                                </g>
                                <g id="XMLID_16_" transform="translate(148.150685, 122.152318)" fill="#04D6A0">
                                    <g id="XMLID_222_" transform="translate(11.068493, 0.000000)">
                                        <g id="XMLID_225_">
                                            <path d="M0.869863014,7.04172185 C0.438356164,7.04172185 0.00684931507,6.75430464 0.00684931507,6.1794702 L0.00684931507,1.72450331 C0.00684931507,1.29337748 0.294520548,0.862251656 0.869863014,0.862251656 C1.44520548,0.862251656 1.73287671,1.14966887 1.73287671,1.72450331 L1.73287671,6.1794702 C1.73287671,6.75430464 1.30136986,7.04172185 0.869863014,7.04172185 Z" id="XMLID_227_"></path>
                                        </g>
                                    </g>
                                    <g id="XMLID_196_" transform="translate(3.876712, 2.874172)">
                                        <g id="XMLID_218_">
                                            <path d="M4.17808219,5.46092715 C4.03424658,5.46092715 3.74657534,5.31721854 3.60273973,5.17350993 L0.438356164,2.01192053 C0.294520548,1.86821192 0.150684932,1.72450331 0.150684932,1.43708609 C0.150684932,1.14966887 0.294520548,1.00596026 0.438356164,0.862251656 C0.582191781,0.718543046 0.726027397,0.574834437 1.01369863,0.574834437 C1.15753425,0.574834437 1.44520548,0.718543046 1.5890411,0.862251656 L4.75342466,4.02384106 C5.04109589,4.31125828 5.04109589,4.88609272 4.75342466,5.17350993 C4.60958904,5.46092715 4.32191781,5.46092715 4.17808219,5.46092715 Z" id="XMLID_220_"></path>
                                        </g>
                                    </g>
                                    <g id="XMLID_192_" transform="translate(0.000000, 10.059603)">
                                        <g id="XMLID_193_">
                                            <path d="M1.7260274,2.15562914 C1.29452055,2.15562914 0.863013699,1.86821192 0.863013699,1.29337748 C0.863013699,0.862251656 1.15068493,0.431125828 1.7260274,0.431125828 L6.18493151,0.431125828 C6.61643836,0.431125828 7.04794521,0.718543046 7.04794521,1.29337748 C7.04794521,1.72450331 6.76027397,2.15562914 6.18493151,2.15562914 L1.7260274,2.15562914 Z" id="XMLID_194_"></path>
                                        </g>
                                    </g>
                                    <g id="XMLID_189_" transform="translate(2.876712, 14.370861)">
                                        <g id="XMLID_190_">
                                            <path d="M1.43835616,4.88609272 C1.29452055,4.88609272 1.00684932,4.74238411 0.863013699,4.5986755 C0.719178082,4.45496689 0.575342466,4.31125828 0.575342466,4.02384106 C0.575342466,3.88013245 0.719178082,3.59271523 0.863013699,3.44900662 L4.02739726,0.287417219 C4.17123288,0.143708609 4.31506849,0 4.60273973,0 C4.74657534,0 5.03424658,0.143708609 5.17808219,0.287417219 C5.46575342,0.574834437 5.46575342,1.14966887 5.17808219,1.43708609 L2.01369863,4.5986755 C1.86986301,4.88609272 1.7260274,4.88609272 1.43835616,4.88609272 Z" id="XMLID_191_"></path>
                                        </g>
                                    </g>
                                    <g id="XMLID_186_" transform="translate(10.068493, 15.807947)">
                                        <g id="XMLID_187_">
                                            <path d="M1.15068493,6.61059603 C0.719178082,6.61059603 0.287671233,6.32317881 0.287671233,5.74834437 L0.287671233,1.29337748 C0.287671233,0.862251656 0.575342466,0.431125828 1.15068493,0.431125828 C1.58219178,0.431125828 2.01369863,0.718543046 2.01369863,1.29337748 L2.01369863,5.74834437 C2.01369863,6.32317881 1.58219178,6.61059603 1.15068493,6.61059603 Z" id="XMLID_188_"></path>
                                        </g>
                                    </g>
                                    <g id="XMLID_65_" transform="translate(14.383562, 14.370861)">
                                        <g id="XMLID_134_">
                                            <path d="M4.02739726,5.46092715 C3.88356164,5.46092715 3.59589041,5.31721854 3.45205479,5.17350993 L0.287671233,2.01192053 C0.143835616,1.86821192 0,1.72450331 0,1.43708609 C0,1.29337748 0.143835616,1.00596026 0.287671233,0.862251656 C0.431506849,0.718543046 0.575342466,0.574834437 0.863013699,0.574834437 C1.00684932,0.574834437 1.29452055,0.718543046 1.43835616,0.862251656 L4.60273973,4.02384106 C4.74657534,4.16754967 4.89041096,4.31125828 4.89041096,4.5986755 C4.89041096,4.74238411 4.74657534,5.02980132 4.60273973,5.17350993 C4.45890411,5.31721854 4.17123288,5.46092715 4.02739726,5.46092715 Z" id="XMLID_185_"></path>
                                        </g>
                                    </g>
                                    <g id="XMLID_20_" transform="translate(15.821918, 11.059603)">
                                        <g id="XMLID_28_">
                                            <path d="M1.29452055,1.73046358 C0.863013699,1.73046358 0.431506849,1.44304636 0.431506849,0.868211921 C0.431506849,0.437086093 0.719178082,0.0059602649 1.29452055,0.0059602649 L5.75342466,0.0059602649 C6.18493151,0.0059602649 6.61643836,0.293377483 6.61643836,0.868211921 C6.61643836,1.29933775 6.32876712,1.73046358 5.75342466,1.73046358 L1.29452055,1.73046358 Z" id="XMLID_32_"></path>
                                        </g>
                                    </g>
                                    <g id="XMLID_17_" transform="translate(14.383562, 3.874172)">
                                        <g id="XMLID_18_">
                                            <path d="M1.29452055,5.03576159 C1.15068493,5.03576159 0.863013699,4.89205298 0.719178082,4.74834437 C0.575342466,4.60463576 0.431506849,4.46092715 0.431506849,4.17350993 C0.431506849,3.88609272 0.575342466,3.74238411 0.719178082,3.5986755 L3.88356164,0.437086093 C4.02739726,0.293377483 4.17123288,0.149668874 4.45890411,0.149668874 C4.60273973,0.149668874 4.89041096,0.293377483 5.03424658,0.437086093 C5.32191781,0.724503311 5.32191781,1.29933775 5.03424658,1.58675497 L1.86986301,4.74834437 C1.7260274,4.89205298 1.58219178,5.03576159 1.29452055,5.03576159 Z" id="XMLID_19_"></path>
                                        </g>
                                    </g>
                                </g>
                                <g id="XMLID_226_" transform="translate(67.602740, 58.920530)" fill="#FFD166">
                                    <g id="XMLID_296_" transform="translate(8.191781, 0.000000)">
                                        <g id="XMLID_297_">
                                            <path d="M1.44520548,19.2569536 C0.869863014,19.2569536 0.294520548,18.6821192 0.294520548,18.1072848 L0.582191781,1.86821192 C0.582191781,1.29337748 1.15753425,0.718543046 1.73287671,0.718543046 C2.30821918,0.718543046 2.88356164,1.29337748 2.88356164,1.86821192 L2.59589041,18.1072848 C2.59589041,18.8258278 2.02054795,19.4006623 1.44520548,19.2569536 Z" id="XMLID_298_"></path>
                                        </g>
                                    </g>
                                    <g id="XMLID_293_" transform="translate(0.000000, 8.622517)">
                                        <g id="XMLID_294_">
                                            <path d="M1.7260274,2.44304636 C1.15068493,2.44304636 0.575342466,1.86821192 0.575342466,1.29337748 C0.575342466,0.718543046 1.15068493,0.143708609 1.7260274,0.143708609 L17.9794521,0.431125828 C18.5547945,0.431125828 19.130137,1.00596026 19.130137,1.5807947 C19.130137,2.15562914 18.5547945,2.73046358 17.9794521,2.73046358 L1.7260274,2.44304636 Z" id="XMLID_295_"></path>
                                        </g>
                                    </g>
                                </g>
                                <g id="XMLID_299_" transform="translate(229.698630, 79.039735)" fill="#04D6A0">
                                    <g id="XMLID_300_">
                                        <path d="M6.33561644,13.2211921 C2.88356164,13.2211921 0.00684931507,10.3470199 0.00684931507,6.89801325 C0.00684931507,3.44900662 2.88356164,0.574834437 6.33561644,0.574834437 C9.78767123,0.574834437 12.6643836,3.44900662 12.6643836,6.89801325 C12.6643836,10.4907285 9.78767123,13.2211921 6.33561644,13.2211921 Z M6.33561644,2.44304636 C3.89041096,2.44304636 1.73287671,4.45496689 1.73287671,7.04172185 C1.73287671,9.48476821 3.74657534,11.6403974 6.33561644,11.6403974 C8.78082192,11.6403974 10.9383562,9.62847682 10.9383562,7.04172185 C10.9383562,4.45496689 8.92465753,2.44304636 6.33561644,2.44304636 Z" id="XMLID_301_"></path>
                                    </g>
                                </g>
                                <g id="XMLID_304_" transform="translate(211.438356, 7.185430)" fill="#48BEFF">
                                    <g id="XMLID_368_" transform="translate(10.068493, 0.000000)">
                                        <g id="XMLID_369_">
                                            <path d="M1.15068493,6.89801325 C0.719178082,6.89801325 0.287671233,6.61059603 0.287671233,6.03576159 L0.287671233,1.5807947 C0.287671233,1.14966887 0.575342466,0.718543046 1.15068493,0.718543046 C1.7260274,0.718543046 2.01369863,1.00596026 2.01369863,1.5807947 L2.01369863,6.03576159 C2.01369863,6.46688742 1.58219178,6.89801325 1.15068493,6.89801325 Z" id="XMLID_370_"></path>
                                        </g>
                                    </g>
                                    <g id="XMLID_350_" transform="translate(2.876712, 2.874172)">
                                        <g id="XMLID_354_">
                                            <path d="M4.45890411,5.31721854 C4.31506849,5.31721854 4.02739726,5.17350993 3.88356164,5.02980132 L0.719178082,1.86821192 C0.575342466,1.72450331 0.431506849,1.5807947 0.431506849,1.29337748 C0.431506849,1.00596026 0.575342466,0.862251656 0.719178082,0.718543046 C0.863013699,0.574834437 1.00684932,0.431125828 1.29452055,0.431125828 C1.43835616,0.431125828 1.7260274,0.574834437 1.86986301,0.718543046 L5.03424658,3.88013245 C5.32191781,4.16754967 5.32191781,4.74238411 5.03424658,5.02980132 C4.89041096,5.31721854 4.60273973,5.31721854 4.45890411,5.31721854 Z" id="XMLID_360_"></path>
                                        </g>
                                    </g>
                                    <g id="XMLID_333_" transform="translate(0.000000, 10.059603)">
                                        <g id="XMLID_334_">
                                            <path d="M1.00684932,1.86821192 C0.575342466,1.86821192 0.143835616,1.5807947 0.143835616,1.00596026 C0.143835616,0.431125828 0.431506849,0.143708609 1.00684932,0.143708609 L5.46575342,0.143708609 C5.89726027,0.143708609 6.32876712,0.431125828 6.32876712,1.00596026 C6.32876712,1.5807947 6.04109589,1.86821192 5.46575342,1.86821192 L1.00684932,1.86821192 Z" id="XMLID_340_"></path>
                                        </g>
                                    </g>
                                    <g id="XMLID_320_" transform="translate(2.438356, 13.933775)">
                                        <g id="XMLID_321_">
                                            <path d="M1.15753425,5.1794702 C1.01369863,5.1794702 0.726027397,5.03576159 0.582191781,4.89205298 C0.438356164,4.74834437 0.294520548,4.60463576 0.294520548,4.31721854 C0.294520548,4.17350993 0.438356164,3.88609272 0.582191781,3.74238411 L3.74657534,0.580794702 C3.89041096,0.437086093 4.03424658,0.293377483 4.32191781,0.293377483 C4.46575342,0.293377483 4.75342466,0.437086093 4.89726027,0.580794702 C5.18493151,0.868211921 5.18493151,1.44304636 4.89726027,1.73046358 L1.73287671,4.89205298 C1.5890411,5.03576159 1.44520548,5.1794702 1.15753425,5.1794702 Z" id="XMLID_332_"></path>
                                        </g>
                                    </g>
                                    <g id="XMLID_314_" transform="translate(9.630137, 15.807947)">
                                        <g id="XMLID_315_">
                                            <path d="M1.01369863,6.46688742 C0.582191781,6.46688742 0.150684932,6.1794702 0.150684932,5.60463576 L0.150684932,1.14966887 C0.150684932,0.718543046 0.438356164,0.287417219 1.01369863,0.287417219 C1.44520548,0.287417219 1.87671233,0.574834437 1.87671233,1.14966887 L1.87671233,5.60463576 C1.73287671,6.03576159 1.44520548,6.46688742 1.01369863,6.46688742 Z" id="XMLID_316_"></path>
                                        </g>
                                    </g>
                                    <g id="XMLID_311_" transform="translate(12.945205, 14.370861)">
                                        <g id="XMLID_312_">
                                            <path d="M4.74657534,5.17350993 C4.60273973,5.17350993 4.31506849,5.02980132 4.17123288,4.88609272 L1.00684932,1.72450331 C0.863013699,1.5807947 0.719178082,1.43708609 0.719178082,1.14966887 C0.719178082,1.00596026 0.863013699,0.718543046 1.00684932,0.574834437 C1.15068493,0.431125828 1.29452055,0.287417219 1.58219178,0.287417219 C1.7260274,0.287417219 2.01369863,0.431125828 2.15753425,0.574834437 L5.32191781,3.73642384 C5.46575342,3.88013245 5.60958904,4.02384106 5.60958904,4.31125828 C5.60958904,4.45496689 5.46575342,4.74238411 5.32191781,4.88609272 C5.17808219,5.17350993 5.03424658,5.17350993 4.74657534,5.17350993 Z" id="XMLID_313_"></path>
                                        </g>
                                    </g>
                                    <g id="XMLID_308_" transform="translate(15.383562, 10.059603)">
                                        <g id="XMLID_309_">
                                            <path d="M1.01369863,2.58675497 C0.582191781,2.58675497 0.150684932,2.29933775 0.150684932,1.72450331 C0.150684932,1.29337748 0.438356164,0.862251656 1.01369863,0.862251656 L5.47260274,0.862251656 C5.90410959,0.862251656 6.33561644,1.14966887 6.33561644,1.72450331 C6.33561644,2.15562914 6.04794521,2.58675497 5.47260274,2.58675497 L1.01369863,2.58675497 Z" id="XMLID_310_"></path>
                                        </g>
                                    </g>
                                    <g id="XMLID_305_" transform="translate(13.945205, 3.874172)">
                                        <g id="XMLID_306_">
                                            <path d="M1.15753425,4.89205298 C1.01369863,4.89205298 0.726027397,4.74834437 0.582191781,4.60463576 C0.438356164,4.46092715 0.294520548,4.31721854 0.294520548,4.02980132 C0.294520548,3.74238411 0.438356164,3.5986755 0.582191781,3.45496689 L3.74657534,0.293377483 C3.89041096,0.149668874 4.03424658,0.0059602649 4.32191781,0.0059602649 C4.46575342,0.0059602649 4.75342466,0.149668874 4.89726027,0.293377483 C5.18493151,0.580794702 5.18493151,1.15562914 4.89726027,1.44304636 L1.73287671,4.60463576 C1.44520548,4.74834437 1.30136986,4.89205298 1.15753425,4.89205298 Z" id="XMLID_307_"></path>
                                        </g>
                                    </g>
                                </g>
                                <g id="XMLID_371_" transform="translate(112.191781, 0.000000)" fill="#ED6420">
                                    <g id="XMLID_372_">
                                        <path d="M6.47260274,13.0774834 C3.02054795,13.0774834 0.143835616,10.2033113 0.143835616,6.75430464 C0.143835616,3.30529801 3.02054795,0.431125828 6.47260274,0.431125828 C9.92465753,0.431125828 12.8013699,3.30529801 12.8013699,6.75430464 C12.8013699,10.2033113 9.92465753,13.0774834 6.47260274,13.0774834 Z M6.47260274,2.15562914 C4.02739726,2.15562914 1.86986301,4.16754967 1.86986301,6.75430464 C1.86986301,9.19735099 3.88356164,11.3529801 6.47260274,11.3529801 C8.91780822,11.3529801 11.0753425,9.3410596 11.0753425,6.75430464 C11.0753425,4.16754967 9.06164384,2.15562914 6.47260274,2.15562914 Z" id="XMLID_373_"></path>
                                    </g>
                                </g>
                            </g>
                        </g>
                    </g>
                </g>
            </g>
        </g>
    </g>
</svg>