<?xml version="1.0" encoding="UTF-8"?>
<svg width="294px" height="430px" viewBox="0 0 294 430" version="1.1" xmlns="http://www.w3.org/2000/svg" xmlns:xlink="http://www.w3.org/1999/xlink">
    <!-- Generator: Sketch 43.1 (39012) - http://www.bohemiancoding.com/sketch -->
    <title>Step-2</title>
    <desc>Created with Sketch.</desc>
    <defs></defs>
    <g id="Static-Pages" stroke="none" stroke-width="1" fill="none" fill-rule="evenodd">
        <g id="Homepage" transform="translate(-802.000000, -6288.000000)">
            <g id="Steps-Section" transform="translate(210.000000, 5902.000000)">
                <g id="Step-2" transform="translate(515.000000, 385.000000)">
                    <g id="Info" transform="translate(39.000000, 0.572087)">
                        <g id="Icon-Group" transform="translate(38.000000, 0.000000)">
                            <g id="Step-2" transform="translate(0.000000, 0.427913)">
                                <g id="XMLID_507_" transform="translate(27.095238, 189.705882)" fill-rule="nonzero" fill="#FFF3EA">
                                    <ellipse id="Oval" cx="119.82619" cy="119.584967" rx="119.545238" ry="119.584967"></ellipse>
                                </g>
                                <g id="XMLID_458_" transform="translate(26.690476, 188.300654)" fill-rule="nonzero" fill="#AAAAAA">
                                    <path d="M238.933333,120.990196 C238.511905,170.594771 207.32619,215.843137 160.407143,232.705882 C113.769048,249.428105 60.5285714,234.813725 28.9214286,196.732026 C-2.82619048,158.509804 -7.18095238,102.581699 18.3857143,60.003268 C44.0928571,17.1437908 95.2261905,-5.33986928 144.111905,4.6372549 C199.038095,15.879085 238.511905,65.2026144 238.933333,120.990196 C238.933333,122.114379 240.759524,122.114379 240.619048,120.990196 C240.197619,70.9640523 208.871429,25.2941176 161.811905,7.86928105 C113.909524,-9.83660131 58.5619048,5.62091503 26.5333333,45.248366 C-4.79285714,84.0326797 -8.72619048,139.960784 16.9809524,182.679739 C42.8285714,225.820261 94.3833333,248.72549 143.690476,239.029412 C199.740476,227.928105 240.338095,177.620915 240.759524,120.849673 C240.759524,119.866013 238.933333,119.866013 238.933333,120.990196 Z" id="Shape"></path>
                                </g>
                                <g id="XMLID_455_" transform="translate(70.642857, 204.758170)" fill-rule="nonzero" fill="#FFFFFF">
                                    <path d="M2.24761905,0.264705882 L0.983333333,195.310458 C15.5928571,207.114379 41.7214286,223.555556 78.8071429,222.993464 C111.397619,222.431373 135.278571,207.957516 148.62381,197.839869 L150.028571,1.24836601 L2.24761905,0.264705882 Z" id="Shape"></path>
                                </g>
                                <path d="M73.0309524,205.022876 L220.952381,206.287582 L219.266667,404.565359 L227.133333,398.101307 L228.959524,187.457516 C229.1,175.934641 219.828571,166.660131 208.309524,166.519608 L86.3761905,165.395425 C74.8571429,165.254902 65.5857143,174.529412 65.4452381,185.911765 L63.6190476,394.588235 L71.3452381,401.333333 L73.0309524,205.022876 Z" id="XMLID_432_" fill="#F4F4F4" fill-rule="nonzero"></path>
                                <g id="XMLID_424_" transform="translate(133.857143, 188.300654)" fill-rule="nonzero" fill="#AAAAAA">
                                    <path d="M1.68571429,2.10784314 C9.27142857,2.10784314 16.7166667,2.24836601 24.302381,2.24836601 C25.4261905,2.24836601 25.4261905,0.562091503 24.302381,0.562091503 C16.7166667,0.562091503 9.27142857,0.421568627 1.68571429,0.421568627 C0.561904762,0.421568627 0.561904762,2.10784314 1.68571429,2.10784314 L1.68571429,2.10784314 Z" id="Shape"></path>
                                </g>
                                <g id="XMLID_417_" transform="translate(142.285714, 175.653595)" fill-rule="nonzero" fill="#AAAAAA">
                                    <path d="M8.42857143,4.6372549 C8.28809524,2.52941176 6.74285714,0.843137255 4.63571429,0.843137255 C2.52857143,0.843137255 0.842857143,2.52941176 0.842857143,4.6372549 C0.842857143,6.60457516 2.38809524,8.29084967 4.4952381,8.43137255 C6.74285714,8.57189542 8.28809524,6.74509804 8.42857143,4.6372549 C8.42857143,3.5130719 6.74285714,3.5130719 6.74285714,4.6372549 C6.60238095,7.30718954 2.66904762,7.16666667 2.66904762,4.6372549 C2.66904762,1.96732026 6.60238095,2.10784314 6.74285714,4.6372549 C6.74285714,5.76143791 8.56904762,5.76143791 8.42857143,4.6372549 Z" id="Shape"></path>
                                </g>
                                <g id="XMLID_381_" transform="translate(62.214286, 164.411765)" fill-rule="nonzero" fill="#AAAAAA">
                                    <path d="M10.6761905,41.5947712 C58.8595238,42.0163399 107.042857,42.2973856 155.22619,42.7189542 C156.069048,42.7189542 157.192857,42.5784314 158.035714,42.7189542 C159.159524,42.8594771 157.333333,41.1732026 157.614286,42.1568627 C158.035714,43.9836601 157.614286,46.372549 157.614286,48.3398693 C157.47381,58.7385621 157.47381,68.996732 157.333333,79.3954248 C157.052381,111.434641 156.911905,143.473856 156.630952,175.513072 C156.490476,197.153595 156.35,218.653595 156.209524,240.294118 C156.209524,241.137255 157.192857,241.418301 157.754762,240.856209 C160.42381,238.46732 165.059524,236.359477 165.902381,232.986928 C166.32381,231.300654 165.902381,229.052288 165.902381,227.366013 C165.902381,218.934641 166.042857,210.503268 166.042857,202.212418 C166.183333,175.232026 166.464286,148.392157 166.604762,121.411765 C166.745238,95.8366013 167.02619,70.120915 167.166667,44.5457516 C167.307143,29.7908497 170.819048,9.41503268 153.540476,2.81045752 C147.5,0.562091503 140.195238,1.26470588 133.733333,1.26470588 C121.371429,1.12418301 109.009524,1.12418301 96.647619,0.983660131 C73.3285714,0.843137255 49.8690476,0.562091503 26.55,0.421568627 C15.8738095,0.421568627 6.04047619,5.19934641 2.95,16.1601307 C1.68571429,20.6568627 2.10714286,25.7156863 2.10714286,30.3529412 C1.96666667,52.4150327 1.82619048,74.3366013 1.68571429,96.3986928 C1.5452381,124.784314 1.26428571,153.310458 1.12380952,181.696078 C0.983333333,192.235294 0.983333333,202.915033 0.842857143,213.454248 C0.842857143,218.232026 -0.421428571,224.977124 0.702380952,229.614379 C1.5452381,232.986928 6.18095238,235.51634 8.70952381,237.624183 C9.27142857,238.045752 10.2547619,237.764706 10.2547619,237.062092 C10.6761905,179.728758 11.097619,122.254902 11.5190476,64.9215686 C11.5190476,56.9117647 11.6595238,48.9019608 11.6595238,40.751634 C11.6595238,39.627451 9.97380952,39.627451 9.97380952,40.751634 C9.55238095,98.0849673 9.13095238,155.558824 8.70952381,212.892157 C8.70952381,220.901961 8.56904762,228.911765 8.56904762,237.062092 C9.13095238,236.921569 9.55238095,236.640523 10.1142857,236.5 C7.3047619,234.111111 3.37142857,232.284314 2.52857143,228.911765 C2.10714286,227.084967 2.52857143,224.415033 2.52857143,222.588235 C2.52857143,214.297386 2.66904762,205.866013 2.66904762,197.575163 C2.80952381,171.859477 3.09047619,146.284314 3.23095238,120.568627 C3.37142857,95.9771242 3.65238095,71.3856209 3.79285714,46.7941176 C3.93333333,30.0718954 -0.14047619,3.23202614 24.0214286,2.24836601 C41.4404762,1.54575163 59.1404762,2.52941176 76.7,2.66993464 C98.8952381,2.81045752 121.230952,2.81045752 143.42619,3.09150327 C155.788095,3.23202614 165.340476,10.5392157 165.761905,23.6078431 C165.902381,28.245098 165.761905,33.0228758 165.621429,37.6601307 C165.480952,60.2843137 165.340476,82.9084967 165.059524,105.53268 C164.919048,132.372549 164.638095,159.212418 164.497619,186.052288 C164.357143,196.310458 164.357143,206.568627 164.216667,216.686275 C164.216667,221.183007 165.480952,228.349673 164.07619,232.705882 C163.233333,235.51634 159.019048,237.48366 156.490476,239.872549 C157.052381,240.013072 157.47381,240.294118 158.035714,240.434641 C158.457143,182.539216 158.878571,124.784314 159.3,66.8888889 C159.3,58.5980392 159.440476,50.3071895 159.440476,42.0163399 C159.440476,41.5947712 159.019048,41.1732026 158.597619,41.1732026 C115.471429,40.8921569 72.3452381,40.6111111 29.3595238,40.1895425 C23.1785714,40.1895425 16.997619,40.0490196 10.8166667,40.0490196 C9.55238095,39.7679739 9.55238095,41.5947712 10.6761905,41.5947712 Z" id="Shape"></path>
                                </g>
                                <g id="XMLID_362_" transform="translate(247.238095, 196.732026)" fill-rule="nonzero" fill="#32EDE7">
                                    <g id="XMLID_378_" transform="translate(7.428571, 0.000000)">
                                        <g id="XMLID_379_">
                                            <path d="M1.82619048,19.1111111 C1.26428571,19.1111111 0.702380952,18.6895425 0.702380952,17.9869281 L0.421428571,2.10784314 C0.421428571,1.54575163 0.842857143,0.983660131 1.5452381,0.983660131 C2.10714286,0.983660131 2.66904762,1.40522876 2.66904762,2.10784314 L2.95,17.9869281 C2.95,18.5490196 2.52857143,19.1111111 1.82619048,19.1111111 Z" id="XMLID_380_"></path>
                                        </g>
                                    </g>
                                    <g id="XMLID_365_" transform="translate(0.000000, 8.431373)">
                                        <g id="XMLID_376_">
                                            <path d="M1.24761905,2.81045752 C0.685714286,2.81045752 0.123809524,2.38888889 0.123809524,1.68627451 C0.123809524,1.12418301 0.545238095,0.562091503 1.24761905,0.562091503 L17.1214286,0.281045752 C17.6833333,0.281045752 18.2452381,0.702614379 18.2452381,1.40522876 C18.2452381,1.96732026 17.8238095,2.52941176 17.1214286,2.52941176 L1.24761905,2.81045752 Z" id="XMLID_377_"></path>
                                        </g>
                                    </g>
                                </g>
                                <g id="XMLID_356_" transform="translate(22.880952, 210.784314)" fill-rule="nonzero" fill="#FF5F5F">
                                    <g id="XMLID_357_">
                                        <path d="M6.18095238,12.7875817 C2.80952381,12.7875817 0,9.97712418 0,6.60457516 C0,3.23202614 2.80952381,0.421568627 6.18095238,0.421568627 C9.55238095,0.421568627 12.3619048,3.23202614 12.3619048,6.60457516 C12.3619048,9.97712418 9.69285714,12.7875817 6.18095238,12.7875817 Z M6.18095238,2.10784314 C3.79285714,2.10784314 1.68571429,4.0751634 1.68571429,6.60457516 C1.68571429,8.99346405 3.65238095,11.1013072 6.18095238,11.1013072 C8.70952381,11.1013072 10.6761905,9.13398693 10.6761905,6.60457516 C10.6761905,4.0751634 8.70952381,2.10784314 6.18095238,2.10784314 Z" id="XMLID_358_"></path>
                                    </g>
                                </g>
                                <g id="XMLID_324_" transform="translate(132.452381, 126.470588)" fill-rule="nonzero" fill="#905DF4">
                                    <g id="XMLID_352_" transform="translate(9.833333, 0.000000)">
                                        <g id="XMLID_353_">
                                            <path d="M1.68571429,6.04248366 C1.26428571,6.04248366 0.842857143,5.76143791 0.842857143,5.19934641 L0.842857143,0.843137255 C0.842857143,0.421568627 1.12380952,0 1.68571429,0 C2.10714286,0 2.52857143,0.281045752 2.52857143,0.843137255 L2.52857143,5.19934641 C2.52857143,5.76143791 2.10714286,6.04248366 1.68571429,6.04248366 Z" id="XMLID_355_"></path>
                                        </g>
                                    </g>
                                    <g id="XMLID_347_" transform="translate(2.809524, 2.405229)">
                                        <g id="XMLID_348_">
                                            <path d="M4.91666667,4.90196078 C4.77619048,4.90196078 4.4952381,4.76143791 4.3547619,4.62091503 L1.26428571,1.52941176 C1.12380952,1.38888889 0.983333333,1.24836601 0.983333333,0.967320261 C0.983333333,0.68627451 1.12380952,0.545751634 1.26428571,0.405228758 C1.4047619,0.264705882 1.5452381,0.124183007 1.82619048,0.124183007 C1.96666667,0.124183007 2.24761905,0.264705882 2.38809524,0.405228758 L5.47857143,3.49673203 C5.75952381,3.77777778 5.75952381,4.33986928 5.47857143,4.62091503 C5.33809524,4.90196078 5.05714286,4.90196078 4.91666667,4.90196078 Z" id="XMLID_349_"></path>
                                        </g>
                                    </g>
                                    <g id="XMLID_344_" transform="translate(0.000000, 8.431373)">
                                        <g id="XMLID_345_">
                                            <path d="M1.5452381,2.52941176 C1.12380952,2.52941176 0.702380952,2.24836601 0.702380952,1.68627451 C0.702380952,1.26470588 0.983333333,0.843137255 1.5452381,0.843137255 L5.9,0.843137255 C6.32142857,0.843137255 6.74285714,1.12418301 6.74285714,1.68627451 C6.74285714,2.10784314 6.46190476,2.52941176 5.9,2.52941176 L1.5452381,2.52941176 Z" id="XMLID_346_"></path>
                                        </g>
                                    </g>
                                    <g id="XMLID_341_" transform="translate(2.809524, 12.647059)">
                                        <g id="XMLID_342_">
                                            <path d="M1.26428571,5.33986928 C1.12380952,5.33986928 0.842857143,5.19934641 0.702380952,5.05882353 C0.561904762,4.91830065 0.421428571,4.77777778 0.421428571,4.49673203 C0.421428571,4.35620915 0.561904762,4.0751634 0.702380952,3.93464052 L3.79285714,0.843137255 C3.93333333,0.702614379 4.07380952,0.562091503 4.3547619,0.562091503 C4.4952381,0.562091503 4.77619048,0.702614379 4.91666667,0.843137255 C5.19761905,1.12418301 5.19761905,1.68627451 4.91666667,1.96732026 L1.82619048,5.05882353 C1.68571429,5.19934641 1.5452381,5.33986928 1.26428571,5.33986928 Z" id="XMLID_343_"></path>
                                        </g>
                                    </g>
                                    <g id="XMLID_337_" transform="translate(9.833333, 14.052288)">
                                        <g id="XMLID_338_">
                                            <path d="M0.983333333,7.02614379 C0.561904762,7.02614379 0.14047619,6.74509804 0.14047619,6.18300654 L0.14047619,1.82679739 C0.14047619,1.40522876 0.421428571,0.983660131 0.983333333,0.983660131 C1.4047619,0.983660131 1.82619048,1.26470588 1.82619048,1.82679739 L1.82619048,6.18300654 C1.82619048,6.74509804 1.4047619,7.02614379 0.983333333,7.02614379 Z" id="XMLID_339_"></path>
                                        </g>
                                    </g>
                                    <g id="XMLID_331_" transform="translate(13.642857, 13.647059)">
                                        <g id="XMLID_335_">
                                            <path d="M4.19761905,4.90196078 C4.05714286,4.90196078 3.77619048,4.76143791 3.63571429,4.62091503 L0.545238095,1.52941176 C0.404761905,1.38888889 0.264285714,1.24836601 0.264285714,0.967320261 C0.264285714,0.826797386 0.404761905,0.545751634 0.545238095,0.405228758 C0.685714286,0.264705882 0.826190476,0.124183007 1.10714286,0.124183007 C1.24761905,0.124183007 1.52857143,0.264705882 1.66904762,0.405228758 L4.75952381,3.49673203 C4.9,3.6372549 5.04047619,3.77777778 5.04047619,4.05882353 C5.04047619,4.19934641 4.9,4.48039216 4.75952381,4.62091503 C4.61904762,4.76143791 4.47857143,4.90196078 4.19761905,4.90196078 Z" id="XMLID_336_"></path>
                                        </g>
                                    </g>
                                    <g id="XMLID_328_" transform="translate(15.452381, 9.836601)">
                                        <g id="XMLID_329_">
                                            <path d="M1.12380952,1.82679739 C0.702380952,1.82679739 0.280952381,1.54575163 0.280952381,0.983660131 C0.280952381,0.562091503 0.561904762,0.140522876 1.12380952,0.140522876 L5.47857143,0.140522876 C5.9,0.140522876 6.32142857,0.421568627 6.32142857,0.983660131 C6.32142857,1.40522876 6.04047619,1.82679739 5.47857143,1.82679739 L1.12380952,1.82679739 Z" id="XMLID_330_"></path>
                                        </g>
                                    </g>
                                    <g id="XMLID_325_" transform="translate(14.047619, 2.810458)">
                                        <g id="XMLID_326_">
                                            <path d="M1.12380952,5.05882353 C0.983333333,5.05882353 0.702380952,4.91830065 0.561904762,4.77777778 C0.421428571,4.6372549 0.280952381,4.49673203 0.280952381,4.21568627 C0.280952381,4.0751634 0.421428571,3.79411765 0.561904762,3.65359477 L3.65238095,0.562091503 C3.79285714,0.421568627 3.93333333,0.281045752 4.21428571,0.281045752 C4.3547619,0.281045752 4.63571429,0.421568627 4.77619048,0.562091503 C5.05714286,0.843137255 5.05714286,1.40522876 4.77619048,1.68627451 L1.68571429,4.77777778 C1.5452381,4.91830065 1.4047619,5.05882353 1.12380952,5.05882353 Z" id="XMLID_327_"></path>
                                        </g>
                                    </g>
                                </g>
                                <g id="XMLID_291_" transform="translate(62.214286, 56.209150)" fill-rule="nonzero" fill="#7763B8">
                                    <g id="XMLID_319_" transform="translate(7.023810, 0.000000)">
                                        <g id="XMLID_322_">
                                            <path d="M1.96666667,18.9705882 C1.4047619,18.9705882 0.842857143,18.4084967 0.842857143,17.8464052 L1.12380952,1.96732026 C1.12380952,1.40522876 1.68571429,0.843137255 2.24761905,0.843137255 C2.80952381,0.843137255 3.37142857,1.40522876 3.37142857,1.96732026 L3.09047619,17.8464052 C3.09047619,18.5490196 2.66904762,18.9705882 1.96666667,18.9705882 Z" id="XMLID_323_"></path>
                                        </g>
                                    </g>
                                    <g id="XMLID_292_" transform="translate(0.000000, 8.431373)">
                                        <g id="XMLID_317_">
                                            <path d="M1.26428571,2.38888889 C0.702380952,2.38888889 0.14047619,1.82679739 0.14047619,1.26470588 C0.14047619,0.702614379 0.702380952,0.140522876 1.26428571,0.140522876 L17.1380952,0.421568627 C17.7,0.421568627 18.2619048,0.983660131 18.2619048,1.54575163 C18.2619048,2.10784314 17.7,2.66993464 17.1380952,2.66993464 L1.26428571,2.38888889 Z" id="XMLID_318_"></path>
                                        </g>
                                    </g>
                                </g>
                                <g id="XMLID_286_" transform="translate(209.714286, 84.313725)" fill-rule="nonzero" fill="#0AA39B">
                                    <g id="XMLID_287_">
                                        <path d="M7.16428571,12.3660131 C3.79285714,12.3660131 0.983333333,9.55555556 0.983333333,6.18300654 C0.983333333,2.81045752 3.79285714,0 7.16428571,0 C10.5357143,0 13.3452381,2.81045752 13.3452381,6.18300654 C13.2047619,9.55555556 10.5357143,12.3660131 7.16428571,12.3660131 Z M7.16428571,1.82679739 C4.77619048,1.82679739 2.66904762,3.79411765 2.66904762,6.32352941 C2.66904762,8.7124183 4.63571429,10.8202614 7.16428571,10.8202614 C9.55238095,10.8202614 11.6595238,8.85294118 11.6595238,6.32352941 C11.5190476,3.79411765 9.55238095,1.82679739 7.16428571,1.82679739 Z" id="XMLID_288_"></path>
                                    </g>
                                </g>
                                <g id="XMLID_257_" transform="translate(218.142857, 13.647059)" fill-rule="nonzero" fill="#FF5F5F">
                                    <g id="XMLID_283_" transform="translate(9.833333, 0.000000)">
                                        <g id="XMLID_284_">
                                            <path d="M1.12380952,6.30718954 C0.702380952,6.30718954 0.280952381,6.02614379 0.280952381,5.46405229 L0.280952381,1.10784314 C0.280952381,0.68627451 0.561904762,0.264705882 1.12380952,0.264705882 C1.5452381,0.264705882 1.96666667,0.545751634 1.96666667,1.10784314 L1.96666667,5.46405229 C1.82619048,5.88562092 1.5452381,6.30718954 1.12380952,6.30718954 Z" id="XMLID_285_"></path>
                                        </g>
                                    </g>
                                    <g id="XMLID_278_" transform="translate(2.809524, 1.810458)">
                                        <g id="XMLID_280_">
                                            <path d="M4.21428571,5.76143791 C4.07380952,5.76143791 3.79285714,5.62091503 3.65238095,5.48039216 L0.561904762,2.38888889 C0.421428571,2.24836601 0.280952381,2.10784314 0.280952381,1.82679739 C0.280952381,1.54575163 0.421428571,1.40522876 0.561904762,1.26470588 C0.702380952,1.12418301 0.842857143,0.983660131 1.12380952,0.983660131 C1.26428571,0.983660131 1.5452381,1.12418301 1.68571429,1.26470588 L4.77619048,4.35620915 C5.05714286,4.6372549 5.05714286,5.19934641 4.77619048,5.48039216 C4.63571429,5.76143791 4.4952381,5.76143791 4.21428571,5.76143791 Z" id="XMLID_282_"></path>
                                        </g>
                                    </g>
                                    <g id="XMLID_275_" transform="translate(0.000000, 8.836601)">
                                        <g id="XMLID_276_">
                                            <path d="M0.842857143,2.38888889 C0.421428571,2.38888889 0,2.10784314 0,1.54575163 C0,1.12418301 0.280952381,0.702614379 0.842857143,0.702614379 L5.19761905,0.702614379 C5.61904762,0.702614379 6.04047619,0.983660131 6.04047619,1.54575163 C6.04047619,1.96732026 5.75952381,2.38888889 5.19761905,2.38888889 L0.842857143,2.38888889 Z" id="XMLID_277_"></path>
                                        </g>
                                    </g>
                                    <g id="XMLID_272_" transform="translate(2.404762, 13.052288)">
                                        <g id="XMLID_273_">
                                            <path d="M0.966666667,5.19934641 C0.826190476,5.19934641 0.545238095,5.05882353 0.404761905,4.91830065 C0.264285714,4.77777778 0.123809524,4.6372549 0.123809524,4.35620915 C0.123809524,4.21568627 0.264285714,3.93464052 0.404761905,3.79411765 L3.4952381,0.702614379 C3.63571429,0.562091503 3.77619048,0.421568627 4.05714286,0.421568627 C4.19761905,0.421568627 4.47857143,0.562091503 4.61904762,0.702614379 C4.9,0.983660131 4.9,1.54575163 4.61904762,1.82679739 L1.52857143,4.91830065 C1.38809524,5.05882353 1.24761905,5.19934641 0.966666667,5.19934641 Z" id="XMLID_274_"></path>
                                        </g>
                                    </g>
                                    <g id="XMLID_269_" transform="translate(8.428571, 14.457516)">
                                        <g id="XMLID_270_">
                                            <path d="M1.82619048,6.88562092 C1.4047619,6.88562092 0.983333333,6.60457516 0.983333333,6.04248366 L0.983333333,1.68627451 C0.983333333,1.26470588 1.26428571,0.843137255 1.82619048,0.843137255 C2.24761905,0.843137255 2.66904762,1.12418301 2.66904762,1.68627451 L2.66904762,6.04248366 C2.52857143,6.46405229 2.24761905,6.88562092 1.82619048,6.88562092 Z" id="XMLID_271_"></path>
                                        </g>
                                    </g>
                                    <g id="XMLID_264_" transform="translate(12.642857, 13.052288)">
                                        <g id="XMLID_267_">
                                            <path d="M4.4952381,5.62091503 C4.3547619,5.62091503 4.07380952,5.48039216 3.93333333,5.33986928 L0.842857143,2.24836601 C0.702380952,2.10784314 0.561904762,1.96732026 0.561904762,1.68627451 C0.561904762,1.54575163 0.702380952,1.26470588 0.842857143,1.12418301 C0.983333333,0.983660131 1.12380952,0.843137255 1.4047619,0.843137255 C1.5452381,0.843137255 1.82619048,0.983660131 1.96666667,1.12418301 L5.05714286,4.21568627 C5.19761905,4.35620915 5.33809524,4.49673203 5.33809524,4.77777778 C5.33809524,4.91830065 5.19761905,5.19934641 5.05714286,5.33986928 C4.91666667,5.62091503 4.77619048,5.62091503 4.4952381,5.62091503 Z" id="XMLID_268_"></path>
                                        </g>
                                    </g>
                                    <g id="XMLID_261_" transform="translate(14.047619, 10.241830)">
                                        <g id="XMLID_262_">
                                            <path d="M1.82619048,1.68627451 C1.4047619,1.68627451 0.983333333,1.40522876 0.983333333,0.843137255 C0.983333333,0.421568627 1.26428571,0 1.82619048,0 L6.18095238,0 C6.60238095,0 7.02380952,0.281045752 7.02380952,0.843137255 C7.02380952,1.26470588 6.74285714,1.68627451 6.18095238,1.68627451 L1.82619048,1.68627451 Z" id="XMLID_263_"></path>
                                        </g>
                                    </g>
                                    <g id="XMLID_258_" transform="translate(13.642857, 3.215686)">
                                        <g id="XMLID_259_">
                                            <path d="M0.966666667,4.91830065 C0.826190476,4.91830065 0.545238095,4.77777778 0.404761905,4.6372549 C0.264285714,4.49673203 0.123809524,4.35620915 0.123809524,4.0751634 C0.123809524,3.93464052 0.264285714,3.65359477 0.404761905,3.5130719 L3.4952381,0.421568627 C3.63571429,0.281045752 3.77619048,0.140522876 4.05714286,0.140522876 C4.19761905,0.140522876 4.47857143,0.281045752 4.61904762,0.421568627 C4.9,0.702614379 4.9,1.26470588 4.61904762,1.54575163 L1.52857143,4.6372549 C1.24761905,4.77777778 1.10714286,4.91830065 0.966666667,4.91830065 Z" id="XMLID_260_"></path>
                                        </g>
                                    </g>
                                </g>
                                <g id="XMLID_252_" transform="translate(105.761905, 0.000000)" fill-rule="nonzero" fill="#32EDE7">
                                    <g id="XMLID_253_">
                                        <path d="M6.18095238,13.2091503 C2.80952381,13.2091503 0,10.3986928 0,7.02614379 C0,3.65359477 2.80952381,0.843137255 6.18095238,0.843137255 C9.55238095,0.843137255 12.3619048,3.65359477 12.3619048,7.02614379 C12.3619048,10.5392157 9.69285714,13.2091503 6.18095238,13.2091503 Z M6.18095238,2.66993464 C3.79285714,2.66993464 1.68571429,4.6372549 1.68571429,7.16666667 C1.68571429,9.55555556 3.65238095,11.6633987 6.18095238,11.6633987 C8.56904762,11.6633987 10.6761905,9.69607843 10.6761905,7.16666667 C10.6761905,4.6372549 8.70952381,2.66993464 6.18095238,2.66993464 Z" id="XMLID_254_"></path>
                                    </g>
                                </g>
                                <g id="XMLID_43_" transform="translate(0.000000, 102.581699)" fill-rule="nonzero">
                                    <path d="M23.5833333,2.24836601 C22.7404762,2.38888889 19.2285714,3.23202614 18.3857143,3.5130719 C12.0642857,5.05882353 7.00714286,9.41503268 4.05714286,15.3169935 C4.05714286,15.3169935 4.05714286,15.4575163 3.91666667,15.4575163 C2.93333333,17.2843137 2.37142857,19.3921569 1.80952381,21.5 L1.80952381,21.6405229 C1.52857143,23.1862745 1.38809524,24.7320261 1.24761905,26.2777778 L1.24761905,26.5588235 C1.24761905,28.9477124 1.38809524,31.3366013 1.95,33.7254902 C2.79285714,37.5196078 4.47857143,41.0326797 6.58571429,43.8431373 C6.58571429,43.8431373 6.58571429,43.8431373 6.58571429,43.9836601 C7.85,45.6699346 9.2547619,47.2156863 10.8,48.620915 L10.9404762,48.7614379 C12.4857143,50.0261438 14.1714286,51.1503268 15.997619,52.1339869 C15.997619,52.1339869 16.1380952,52.1339869 16.1380952,52.2745098 C20.352381,54.2418301 25.1285714,54.9444444 29.7642857,53.8202614 C30.6071429,53.6797386 34.1190476,52.8366013 34.9619048,52.5555556 C47.1833333,49.745098 54.347619,36.1143791 51.1166667,22.3431373 C47.8857143,8.57189542 35.6642857,-0.562091503 23.5833333,2.24836601 Z" id="XMLID_482_" fill="#DBFFFE"></path>
                                    <g id="XMLID_52_" fill="#0AA39B">
                                        <path d="M23.302381,0.702614379 C22.3190476,0.983660131 21.4761905,1.26470588 20.6333333,1.54575163 C19.65,1.68627451 18.8071429,1.82679739 17.8238095,1.96732026 C11.2214286,3.5130719 5.88333333,8.1503268 2.93333333,14.3333333 C2.93333333,14.3333333 2.93333333,14.4738562 2.79285714,14.4738562 C1.80952381,16.4411765 1.10714286,18.5490196 0.685714286,20.7973856 L0.685714286,20.9379085 C0.404761905,22.4836601 0.123809524,24.0294118 0.123809524,25.7156863 L0.123809524,25.996732 C0.123809524,28.5261438 0.264285714,31.0555556 0.966666667,33.5849673 C1.95,37.5196078 3.4952381,41.1732026 5.74285714,44.2647059 C5.74285714,44.2647059 5.74285714,44.2647059 5.74285714,44.4052288 C7.00714286,46.2320261 8.55238095,47.7777778 10.2380952,49.1830065 L10.3785714,49.3235294 C12.0642857,50.7287582 13.75,51.8529412 15.7166667,52.8366013 C15.7166667,52.8366013 15.8571429,52.8366013 15.8571429,52.9771242 C20.2119048,55.0849673 25.2690476,55.7875817 30.0452381,54.6633987 C30.8880952,54.5228758 31.7309524,54.2418301 32.7142857,53.8202614 C33.697619,53.6797386 34.5404762,53.5392157 35.5238095,53.3986928 C48.1666667,50.4477124 55.752381,36.254902 52.3809524,21.7810458 C49.0095238,7.16666667 35.9452381,-2.24836601 23.302381,0.702614379 Z M14.3119048,5.33986928 C14.0309524,5.62091503 13.75,5.76143791 13.6095238,6.04248366 C13.4690476,6.18300654 13.3285714,6.32352941 13.1880952,6.46405229 C12.9071429,6.74509804 12.7666667,6.88562092 12.6261905,7.16666667 L10.9404762,7.58823529 C12.0642857,6.60457516 13.3285714,5.90196078 14.7333333,5.19934641 C14.452381,5.19934641 14.3119048,5.33986928 14.3119048,5.33986928 Z M14.3119048,46.6535948 L11.0809524,47.3562092 C9.95714286,46.372549 8.97380952,45.3888889 8.13095238,44.2647059 L11.502381,43.4215686 C11.7833333,43.7026144 11.9238095,43.9836601 12.2047619,44.2647059 C12.3452381,44.4052288 12.3452381,44.5457516 12.4857143,44.6862745 C12.7666667,44.9673203 13.047619,45.248366 13.3285714,45.6699346 C13.4690476,45.8104575 13.4690476,45.9509804 13.6095238,45.9509804 C13.8904762,46.2320261 14.0309524,46.5130719 14.3119048,46.6535948 Z M2.37142857,21.7810458 L5.88333333,20.9379085 C5.88333333,21.3594771 5.74285714,21.7810458 5.74285714,22.2026144 L5.74285714,22.624183 C5.74285714,23.0457516 5.74285714,23.4673203 5.60238095,23.8888889 L2.09047619,24.7320261 C2.09047619,23.748366 2.23095238,22.7647059 2.37142857,21.7810458 Z M2.79285714,33.1633987 C2.65238095,32.6013072 2.51190476,31.8986928 2.37142857,31.3366013 L6.02380952,30.4934641 L6.02380952,30.4934641 C6.16428571,31.0555556 6.3047619,31.6176471 6.4452381,32.3202614 C6.58571429,32.6013072 6.58571429,32.8823529 6.72619048,33.1633987 L3.07380952,34.0065359 C2.93333333,33.7254902 2.79285714,33.4444444 2.79285714,33.1633987 Z M7.14761905,34.9901961 C7.28809524,35.4117647 7.42857143,35.6928105 7.56904762,36.1143791 C7.56904762,36.1143791 7.56904762,36.1143791 7.56904762,36.254902 C7.70952381,36.6764706 7.99047619,37.2385621 8.13095238,37.6601307 L4.61904762,38.503268 C4.19761905,37.6601307 3.91666667,36.8169935 3.63571429,35.8333333 L7.14761905,34.9901961 Z M5.60238095,25.8562092 L5.60238095,26.1372549 L5.60238095,26.5588235 C5.60238095,27.120915 5.60238095,27.6830065 5.74285714,28.3856209 C5.74285714,28.3856209 5.74285714,28.3856209 5.74285714,28.5261438 L5.74285714,28.8071895 L2.09047619,29.5098039 C1.95,28.5261438 1.95,27.6830065 1.95,26.6993464 L5.60238095,25.8562092 Z M8.97380952,39.3464052 C8.97380952,39.4869281 9.11428571,39.4869281 9.11428571,39.627451 L9.11428571,39.7679739 C9.3952381,40.3300654 9.67619048,40.751634 9.95714286,41.3137255 C9.95714286,41.4542484 10.097619,41.4542484 10.097619,41.5947712 C10.097619,41.7352941 10.2380952,41.7352941 10.2380952,41.875817 L6.72619048,42.7189542 C6.16428571,41.875817 5.74285714,41.0326797 5.18095238,40.1895425 L8.97380952,39.3464052 Z M6.86666667,16.8627451 C6.86666667,17.003268 6.72619048,17.1437908 6.72619048,17.2843137 C6.58571429,17.7058824 6.4452381,18.127451 6.4452381,18.5490196 C6.4452381,18.6895425 6.3047619,18.8300654 6.3047619,18.9705882 L6.3047619,18.9705882 L2.93333333,19.8137255 C3.3547619,18.4084967 3.77619048,17.003268 4.47857143,15.5980392 L7.70952381,14.8954248 C7.42857143,15.0359477 7.42857143,15.3169935 7.28809524,15.4575163 C7.14761905,15.879085 7.00714286,16.4411765 6.86666667,16.8627451 Z M7.99047619,9.97712418 L10.5190476,9.41503268 C10.3785714,9.69607843 10.097619,9.97712418 9.95714286,10.1176471 C9.81666667,10.3986928 9.67619048,10.5392157 9.53571429,10.8202614 C9.3952381,11.1013072 9.2547619,11.2418301 9.11428571,11.5228758 C8.97380952,11.8039216 8.83333333,11.9444444 8.69285714,12.2254902 C8.55238095,12.3660131 8.55238095,12.6470588 8.41190476,12.7875817 L5.46190476,13.4901961 C6.3047619,12.2254902 7.14761905,11.1013072 7.99047619,9.97712418 Z M12.9071429,48.9019608 L15.997619,48.1993464 C16.1380952,48.3398693 16.2785714,48.4803922 16.4190476,48.4803922 C16.8404762,48.7614379 17.1214286,49.0424837 17.5428571,49.3235294 C17.6833333,49.4640523 17.9642857,49.6045752 18.1047619,49.745098 C18.3857143,49.8856209 18.5261905,50.0261438 18.8071429,50.1666667 C18.947619,50.1666667 18.947619,50.3071895 19.0880952,50.3071895 L16.4190476,51.0098039 C15.1547619,50.4477124 14.0309524,49.745098 12.9071429,48.9019608 Z M25.6904762,53.1176471 C23.5833333,53.1176471 21.3357143,52.8366013 19.3690476,52.1339869 L21.6166667,51.5718954 C21.7571429,51.5718954 21.897619,51.7124183 22.0380952,51.7124183 C22.3190476,51.8529412 22.4595238,51.8529412 22.7404762,51.9934641 C23.1619048,52.1339869 23.5833333,52.2745098 24.0047619,52.4150327 C24.1452381,52.4150327 24.4261905,52.5555556 24.5666667,52.5555556 C24.847619,52.6960784 25.2690476,52.6960784 25.55,52.8366013 C25.55,53.1176471 25.55,53.1176471 25.6904762,53.1176471 Z M35.102381,51.4313725 C34.4,51.5718954 33.697619,51.7124183 32.9952381,51.8529412 L32.5738095,51.8529412 L32.4333333,51.8529412 L31.45,51.8529412 C31.45,51.8529412 31.45,51.8529412 31.3095238,51.8529412 L30.3261905,51.8529412 L30.1857143,51.8529412 L29.3428571,51.8529412 L29.0619048,51.8529412 L28.3595238,51.8529412 C28.2190476,51.8529412 27.9380952,51.8529412 27.797619,51.7124183 L27.3761905,51.7124183 C22.0380952,50.7287582 17.1214286,47.6372549 13.4690476,43.1405229 C13.4690476,43.1405229 13.4690476,43 13.3285714,43 C13.1880952,42.7189542 12.9071429,42.4379085 12.7666667,42.2973856 C12.6261905,42.1568627 12.6261905,42.1568627 12.4857143,42.0163399 C12.3452381,41.875817 12.2047619,41.5947712 12.0642857,41.4542484 C11.9238095,41.3137255 11.9238095,41.1732026 11.7833333,41.0326797 C11.6428571,40.8921569 11.502381,40.6111111 11.502381,40.4705882 C11.3619048,40.3300654 11.3619048,40.1895425 11.2214286,40.0490196 C11.0809524,39.9084967 11.0809524,39.627451 10.9404762,39.4869281 C10.8,39.3464052 10.8,39.2058824 10.6595238,38.9248366 C10.5190476,38.7843137 10.5190476,38.503268 10.3785714,38.3627451 C10.2380952,37.9411765 10.2380952,37.8006536 10.097619,37.6601307 C9.95714286,37.5196078 9.95714286,37.2385621 9.81666667,37.0980392 C9.67619048,36.9575163 9.67619048,36.6764706 9.53571429,36.5359477 C9.3952381,36.3954248 9.3952381,36.1143791 9.2547619,35.9738562 C9.2547619,35.8333333 9.11428571,35.5522876 9.11428571,35.4117647 C8.97380952,35.2712418 8.97380952,34.9901961 8.83333333,34.7091503 C8.83333333,34.5686275 8.69285714,34.4281046 8.69285714,34.1470588 C8.55238095,33.8660131 8.55238095,33.5849673 8.41190476,33.4444444 C8.41190476,33.3039216 8.27142857,33.1633987 8.27142857,33.0228758 C8.13095238,32.6013072 7.99047619,32.1797386 7.99047619,31.7581699 C7.85,31.3366013 7.85,30.9150327 7.70952381,30.4934641 C7.70952381,30.3529412 7.70952381,30.2124183 7.56904762,30.0718954 C7.56904762,29.7908497 7.42857143,29.5098039 7.42857143,29.369281 L7.42857143,28.8071895 C7.42857143,28.5261438 7.42857143,28.3856209 7.28809524,28.1045752 L7.28809524,27.5424837 L7.28809524,26.9803922 L7.28809524,26.4183007 L7.28809524,25.8562092 L7.28809524,25.2941176 L7.28809524,24.7320261 L7.28809524,24.1699346 L7.28809524,23.6078431 L7.28809524,23.0457516 L7.28809524,22.3431373 L7.28809524,21.9215686 C7.28809524,21.6405229 7.28809524,21.3594771 7.42857143,21.2189542 L7.42857143,20.7973856 C7.42857143,20.5163399 7.56904762,20.2352941 7.56904762,19.8137255 L7.56904762,19.6732026 C8.83333333,13.9117647 11.9238095,8.99346405 16.2785714,5.76143791 C16.8404762,5.62091503 16.9809524,5.62091503 17.1214286,5.48039216 C17.2619048,5.33986928 17.402381,5.19934641 17.6833333,5.19934641 C17.8238095,5.05882353 18.1047619,4.91830065 18.3857143,4.77777778 C18.5261905,4.77777778 18.5261905,4.6372549 18.6666667,4.6372549 C18.6666667,4.49673203 18.947619,4.35620915 19.2285714,4.21568627 L19.3690476,4.21568627 C19.65,4.0751634 19.9309524,3.93464052 20.2119048,3.79411765 L20.352381,3.79411765 C20.6333333,3.65359477 20.9142857,3.5130719 21.1952381,3.37254902 L21.3357143,3.37254902 L21.6166667,3.23202614 C22.3190476,2.95098039 23.0214286,2.81045752 23.7238095,2.66993464 C35.3833333,3.12666559e-13 47.4642857,8.7124183 50.6952381,22.0620915 C53.9261905,35.4117647 46.7619048,48.620915 35.102381,51.4313725 Z" id="XMLID_142_"></path>
                                        <path d="M13.3285714,30.7745098 C13.1880952,30.2124183 13.047619,29.6503268 13.047619,29.0882353 C12.9071429,28.5261438 12.4857143,28.245098 11.9238095,28.245098 C11.3619048,28.3856209 11.0809524,28.8071895 11.0809524,29.369281 C11.2214286,29.9313725 11.3619048,30.6339869 11.502381,31.1960784 L11.502381,31.1960784 C11.6428571,31.7581699 12.0642857,32.0392157 12.6261905,31.8986928 C13.1880952,31.7581699 13.3285714,31.1960784 13.3285714,30.7745098 Z" id="XMLID_141_"></path>
                                        <path d="M43.6714286,18.127451 C43.8119048,18.5490196 44.2333333,18.6895425 44.6547619,18.5490196 C44.7952381,18.5490196 44.7952381,18.5490196 44.9357143,18.4084967 C45.3571429,18.4084967 45.497619,17.8464052 45.3571429,17.2843137 C45.0761905,16.7222222 44.7952381,16.1601307 44.3738095,15.5980392 C44.0928571,15.1764706 43.5309524,15.0359477 43.1095238,15.3169935 C42.6880952,15.5980392 42.547619,16.1601307 42.8285714,16.5816993 C43.1095238,17.1437908 43.3904762,17.7058824 43.6714286,18.127451 Z" id="XMLID_140_"></path>
                                        <path d="M44.0928571,36.8169935 C43.8119048,37.379085 43.5309524,37.8006536 43.25,38.3627451 C42.9690476,38.7843137 43.1095238,39.3464052 43.5309524,39.627451 C43.8119048,39.7679739 43.952381,39.7679739 44.2333333,39.7679739 C44.5142857,39.7679739 44.6547619,39.627451 44.7952381,39.3464052 C45.0761905,38.7843137 45.497619,38.2222222 45.7785714,37.6601307 C46.0595238,37.2385621 45.7785714,36.6764706 45.3571429,36.3954248 C44.9357143,36.254902 44.3738095,36.3954248 44.0928571,36.8169935 Z" id="XMLID_139_"></path>
                                        <path d="M15.1547619,35.6928105 C14.8738095,35.2712418 14.3119048,34.9901961 13.8904762,35.2712418 C13.4690476,35.5522876 13.1880952,36.1143791 13.4690476,36.5359477 C13.75,37.0980392 14.0309524,37.6601307 14.452381,38.2222222 C14.7333333,38.503268 15.0142857,38.7843137 15.4357143,38.6437908 C15.5761905,38.6437908 15.5761905,38.6437908 15.7166667,38.503268 C16.1380952,38.2222222 16.2785714,37.6601307 15.997619,37.2385621 C15.5761905,36.6764706 15.2952381,36.254902 15.1547619,35.6928105 Z" id="XMLID_138_"></path>
                                        <path d="M34.1190476,7.16666667 C33.5571429,6.88562092 32.8547619,6.74509804 32.2928571,6.60457516 C31.7309524,6.46405229 31.3095238,6.74509804 31.1690476,7.30718954 C31.0285714,7.86928105 31.3095238,8.29084967 31.8714286,8.43137255 C32.4333333,8.57189542 32.9952381,8.7124183 33.5571429,8.99346405 C33.697619,8.99346405 33.9785714,9.13398693 34.1190476,8.99346405 C34.4,8.99346405 34.6809524,8.7124183 34.8214286,8.43137255 C34.8214286,7.86928105 34.6809524,7.44771242 34.1190476,7.16666667 Z" id="XMLID_137_"></path>
                                        <path d="M39.8785714,42.4379085 C39.4571429,42.8594771 39.0357143,43.1405229 38.4738095,43.4215686 C38.052381,43.7026144 37.9119048,44.2647059 38.1928571,44.6862745 C38.4738095,44.9673203 38.7547619,45.1078431 39.1761905,45.1078431 C39.3166667,45.1078431 39.3166667,45.1078431 39.4571429,44.9673203 C40.0190476,44.5457516 40.5809524,44.2647059 41.002381,43.8431373 C41.4238095,43.5620915 41.4238095,42.8594771 41.1428571,42.5784314 C40.8619048,42.1568627 40.3,42.0163399 39.8785714,42.4379085 Z" id="XMLID_136_"></path>
                                        <path d="M40.7214286,11.2418301 C40.3,10.8202614 39.7380952,10.3986928 39.3166667,9.97712418 C38.8952381,9.69607843 38.3333333,9.69607843 38.052381,10.1176471 C37.7714286,10.5392157 37.7714286,11.1013072 38.1928571,11.3823529 C38.6142857,11.6633987 39.0357143,12.0849673 39.597619,12.5065359 C39.8785714,12.7875817 40.1595238,12.7875817 40.4404762,12.7875817 C40.5809524,12.7875817 40.7214286,12.6470588 40.8619048,12.5065359 C41.1428571,12.2254902 41.002381,11.5228758 40.7214286,11.2418301 Z" id="XMLID_133_"></path>
                                        <path d="M46.2,22.0620915 C45.6380952,22.2026144 45.3571429,22.7647059 45.497619,23.1862745 C45.6380952,23.748366 45.7785714,24.3104575 45.7785714,24.872549 C45.9190476,25.4346405 46.3404762,25.7156863 46.902381,25.7156863 L47.0428571,25.7156863 C47.4642857,25.5751634 47.8857143,25.1535948 47.7452381,24.7320261 C47.6047619,24.1699346 47.6047619,23.4673203 47.4642857,22.9052288 L47.4642857,22.9052288 C47.1833333,22.2026144 46.6214286,21.9215686 46.2,22.0620915 Z" id="XMLID_132_"></path>
                                        <path d="M47.0428571,29.369281 C46.4809524,29.369281 46.0595238,29.6503268 46.0595238,30.2124183 C46.0595238,30.7745098 45.9190476,31.3366013 45.7785714,31.8986928 C45.6380952,32.4607843 46.0595238,32.8823529 46.4809524,33.0228758 L46.902381,33.0228758 C47.1833333,32.8823529 47.6047619,32.6013072 47.6047619,32.3202614 C47.7452381,31.7581699 47.7452381,31.0555556 47.8857143,30.3529412 C47.8857143,29.7908497 47.4642857,29.369281 47.0428571,29.369281 Z" id="XMLID_131_"></path>
                                        <path d="M26.5333333,6.32352941 C25.9714286,6.46405229 25.2690476,6.46405229 24.7071429,6.60457516 L24.7071429,6.60457516 C24.1452381,6.74509804 23.8642857,7.16666667 24.0047619,7.72875817 C24.1452381,8.29084967 24.7071429,8.57189542 25.1285714,8.43137255 C25.6904762,8.29084967 26.252381,8.1503268 26.8142857,8.1503268 L26.9547619,8.1503268 C27.3761905,8.00980392 27.6571429,7.58823529 27.6571429,7.16666667 C27.5166667,6.60457516 26.9547619,6.18300654 26.5333333,6.32352941 Z" id="XMLID_130_"></path>
                                        <path d="M19.2285714,41.3137255 C18.8071429,41.0326797 18.2452381,41.0326797 17.9642857,41.3137255 C17.6833333,41.7352941 17.6833333,42.2973856 17.9642857,42.5784314 C18.3857143,43 18.947619,43.4215686 19.3690476,43.8431373 C19.65,43.9836601 19.9309524,44.124183 20.2119048,43.9836601 C20.352381,43.9836601 20.6333333,43.8431373 20.7738095,43.7026144 C21.0547619,43.2810458 21.0547619,42.7189542 20.6333333,42.4379085 C20.2119048,42.0163399 19.7904762,41.7352941 19.2285714,41.3137255 Z" id="XMLID_129_"></path>
                                        <path d="M12.3452381,20.9379085 C11.7833333,20.7973856 11.3619048,21.2189542 11.2214286,21.6405229 C11.0809524,22.2026144 11.0809524,22.9052288 10.9404762,23.6078431 C10.9404762,24.1699346 11.2214286,24.5915033 11.7833333,24.5915033 L12.0642857,24.5915033 C12.4857143,24.4509804 12.7666667,24.1699346 12.7666667,23.748366 C12.7666667,23.1862745 12.9071429,22.624183 13.047619,22.0620915 C13.1880952,21.5 12.7666667,20.9379085 12.3452381,20.9379085 Z" id="XMLID_121_"></path>
                                        <path d="M33.697619,45.5294118 C33.1357143,45.6699346 32.5738095,45.8104575 32.0119048,45.8104575 C31.45,45.8104575 31.1690476,46.372549 31.1690476,46.7941176 C31.1690476,47.3562092 31.7309524,47.6372549 32.152381,47.6372549 C32.8547619,47.496732 33.4166667,47.496732 34.1190476,47.3562092 L34.2595238,47.3562092 C34.8214286,47.2156863 34.9619048,46.7941176 34.9619048,46.2320261 C34.6809524,45.6699346 34.2595238,45.3888889 33.697619,45.5294118 Z" id="XMLID_56_"></path>
                                        <path d="M13.8904762,14.4738562 C13.6095238,15.0359477 13.1880952,15.5980392 12.9071429,16.1601307 C12.6261905,16.5816993 12.9071429,17.1437908 13.3285714,17.4248366 C13.4690476,17.5653595 13.75,17.5653595 13.8904762,17.5653595 C14.1714286,17.5653595 14.452381,17.2843137 14.452381,17.003268 C14.7333333,16.4411765 15.0142857,16.0196078 15.2952381,15.4575163 C15.5761905,15.0359477 15.4357143,14.4738562 15.0142857,14.1928105 C14.7333333,13.9117647 14.1714286,14.0522876 13.8904762,14.4738562 Z" id="XMLID_55_"></path>
                                        <path d="M19.2285714,8.99346405 C18.6666667,9.41503268 18.1047619,9.69607843 17.6833333,10.1176471 C17.2619048,10.3986928 17.2619048,10.9607843 17.5428571,11.3823529 C17.8238095,11.6633987 18.1047619,11.8039216 18.5261905,11.6633987 C18.6666667,11.6633987 18.8071429,11.5228758 18.947619,11.5228758 C19.3690476,11.1013072 19.7904762,10.8202614 20.352381,10.5392157 C20.7738095,10.2581699 20.9142857,9.69607843 20.6333333,9.2745098 C20.2119048,8.7124183 19.65,8.7124183 19.2285714,8.99346405 Z" id="XMLID_54_"></path>
                                        <path d="M26.8142857,45.3888889 C26.252381,45.248366 25.6904762,45.1078431 25.1285714,44.8267974 C24.7071429,44.6862745 24.1452381,44.9673203 24.0047619,45.3888889 C23.8642857,45.8104575 24.1452381,46.372549 24.5666667,46.5130719 C25.1285714,46.7941176 25.8309524,46.9346405 26.3928571,47.0751634 L26.8142857,47.0751634 C27.0952381,46.9346405 27.3761905,46.7941176 27.5166667,46.372549 C27.6571429,46.0915033 27.3761905,45.5294118 26.8142857,45.3888889 Z" id="XMLID_53_"></path>
                                    </g>
                                </g>
                                <g id="XMLID_123_" transform="translate(214.928571, 98.366013)" fill-rule="nonzero">
                                    <path d="M77.6666667,39.0653595 L23.8642857,0.983660131 C23.302381,0.562091503 22.6,0.702614379 22.3190476,1.26470588 L1.24761905,30.9150327 C0.966666667,31.3366013 1.10714286,32.0392157 1.52857143,32.4607843 L55.1904762,70.6830065 C55.752381,71.1045752 56.4547619,70.9640523 56.7357143,70.4019608 L77.8071429,40.751634 C78.2285714,40.1895425 78.0880952,39.4869281 77.6666667,39.0653595 Z" id="XMLID_127_" fill="#EDE5FF"></path>
                                    <g id="XMLID_477_" fill="#5338A4">
                                        <g id="XMLID_478_">
                                            <path d="M78.3690476,39.2058824 L23.5833333,0.281045752 C23.0214286,-0.140522876 22.3190476,4.23557023e-13 22.0380952,0.562091503 L0.545238095,30.7745098 C0.264285714,31.1960784 0.404761905,31.8986928 0.826190476,32.3202614 L55.4714286,71.245098 C56.0333333,71.6666667 56.7357143,71.5261438 57.0166667,70.9640523 L78.65,40.751634 C78.9309524,40.1895425 78.7904762,39.4869281 78.3690476,39.2058824 Z M56.3142857,69.6993464 L1.95,31.0555556 L22.8809524,1.82679739 L77.2452381,40.4705882 L56.3142857,69.6993464 L56.3142857,69.6993464 Z" id="XMLID_479_"></path>
                                        </g>
                                    </g>
                                    <g id="XMLID_29_" transform="translate(7.428571, 7.026144)" fill="#5338A4">
                                        <g id="XMLID_34_">
                                            <path d="M63.6357143,32.8823529 L17.8404762,0.421568627 C17.4190476,0.140522876 16.8571429,0.140522876 16.5761905,0.562091503 L0.421428571,23.3267974 C0.14047619,23.748366 0.280952381,24.3104575 0.702380952,24.5915033 L46.497619,57.0522876 C46.9190476,57.3333333 47.4809524,57.3333333 47.7619048,56.9117647 L63.9166667,34.1470588 C64.197619,33.7254902 64.0571429,33.1633987 63.6357143,32.8823529 Z M47.0595238,55.9281046 L1.5452381,23.6078431 L17.2785714,1.54575163 L62.7928571,33.8660131 L47.0595238,55.9281046 L47.0595238,55.9281046 Z" id="XMLID_35_"></path>
                                        </g>
                                    </g>
                                    <g id="XMLID_430_" transform="translate(29.500000, 25.294118)" fill="#5338A4">
                                        <g id="XMLID_431_">
                                            <path d="M15.997619,2.38888889 C11.502381,-0.843137255 5.32142857,0.281045752 2.09047619,4.77777778 C-1.14047619,9.2745098 -0.0166666667,15.4575163 4.33809524,18.6895425 C8.83333333,21.9215686 15.0142857,20.7973856 18.2452381,16.3006536 C21.4761905,11.8039216 20.4928571,5.62091503 15.997619,2.38888889 Z M5.04047619,17.7058824 C1.10714286,14.8954248 0.264285714,9.41503268 3.07380952,5.48039216 C5.88333333,1.54575163 11.3619048,0.562091503 15.2952381,3.37254902 C19.2285714,6.18300654 20.0714286,11.6633987 17.2619048,15.5980392 C14.452381,19.5326797 8.97380952,20.5163399 5.04047619,17.7058824 Z" id="XMLID_456_"></path>
                                        </g>
                                    </g>
                                </g>
                                <path d="M200.864286,382.924837 L96.6309524,382.222222 C92.1357143,382.222222 88.6238095,378.568627 88.6238095,374.071895 L88.7642857,362.127451 C88.7642857,357.630719 92.4166667,354.117647 96.9119048,354.117647 L201.145238,354.820261 C205.640476,354.820261 209.152381,358.473856 209.152381,362.970588 L209.011905,374.915033 C208.871429,379.271242 205.359524,382.924837 200.864286,382.924837 Z" id="XMLID_543_" fill="#05C1A1" fill-rule="nonzero"></path>
                                <ellipse id="XMLID_116_" fill="#00BFA3" fill-rule="nonzero" cx="146.219048" cy="265.588235" rx="35.2595238" ry="35.2712418"></ellipse>
                                <g id="XMLID_120_" transform="translate(100.142857, 317.176471)" fill-rule="nonzero" fill="#AAAAAA">
                                    <path d="M1.68571429,2.09150327 C31.3261905,2.37254902 60.9666667,2.5130719 90.4666667,2.79411765 C91.5904762,2.79411765 91.5904762,1.10784314 90.4666667,1.10784314 C60.8261905,0.826797386 31.1857143,0.68627451 1.68571429,0.405228758 C0.421428571,0.264705882 0.421428571,1.95098039 1.68571429,2.09150327 L1.68571429,2.09150327 Z" id="Shape"></path>
                                </g>
                                <g id="XMLID_124_" transform="translate(127.833333, 35.130719)">
                                    <g id="XMLID_733_" fill-rule="nonzero" fill="#FFE4E4">
                                        <path d="M28.5,20.9379085 C26.3928571,29.369281 18.8071429,33.7254902 8.13095238,32.4607843 C13.6095238,40.1895425 19.5095238,49.745098 25.2690476,59.4411765 L17.2619048,58.3169935 C11.9238095,49.4640523 6.86666667,41.3137255 0.264285714,31.7581699 L0.966666667,26.5588235 L5.60238095,27.2614379 C14.5928571,28.5261438 20.0714286,25.5751634 21.4761905,19.8137255 L2.37142857,17.003268 L2.93333333,12.7875817 L21.7571429,15.5980392 C21.3357143,10.5392157 17.2619048,7.44771242 9.95714286,6.46405229 L4.05714286,5.62091503 L4.9,0.140522876 L40.0190476,5.33986928 L39.4571429,9.55555556 L25.6904762,7.58823529 C27.797619,9.83660131 29.202381,12.9281046 29.0619048,16.8627451 L38.1928571,18.2679739 L37.6309524,22.4836601 L28.5,20.9379085 Z" id="XMLID_735_"></path>
                                    </g>
                                    <g id="XMLID_734_" stroke="#BC5050">
                                        <path d="M28.5,20.9379085 C26.3928571,29.369281 18.8071429,33.7254902 8.13095238,32.4607843 C13.6095238,40.1895425 19.5095238,49.745098 25.2690476,59.4411765 L17.2619048,58.3169935 C11.9238095,49.4640523 6.86666667,41.3137255 0.264285714,31.7581699 L0.966666667,26.5588235 L5.60238095,27.2614379 C14.5928571,28.5261438 20.0714286,25.5751634 21.4761905,19.8137255 L2.37142857,17.003268 L2.93333333,12.7875817 L21.7571429,15.5980392 C21.3357143,10.5392157 17.2619048,7.44771242 9.95714286,6.46405229 L4.05714286,5.62091503 L4.9,0.140522876 L40.0190476,5.33986928 L39.4571429,9.55555556 L25.6904762,7.58823529 C27.797619,9.83660131 29.202381,12.9281046 29.0619048,16.8627451 L38.1928571,18.2679739 L37.6309524,22.4836601 L28.5,20.9379085 Z" id="XMLID_739_"></path>
                                    </g>
                                </g>
                                <g id="XMLID_47_" transform="translate(111.380952, 362.143791)" fill-rule="nonzero" fill="#FFFFFF">
                                    <path d="M5.19761905,0.264705882 C6.60238095,0.264705882 7.58571429,0.68627451 8.56904762,1.52941176 C8.70952381,1.66993464 8.70952381,1.81045752 8.56904762,1.95098039 C8.42857143,2.23202614 8.14761905,2.37254902 8.00714286,2.65359477 C7.86666667,2.79411765 7.72619048,2.79411765 7.58571429,2.65359477 C6.88333333,2.09150327 6.04047619,1.66993464 5.19761905,1.66993464 C3.23095238,1.66993464 1.68571429,3.35620915 1.68571429,5.32352941 C1.68571429,7.29084967 3.23095238,8.97712418 5.19761905,8.97712418 C6.32142857,8.97712418 7.16428571,8.55555556 7.3047619,8.55555556 L7.3047619,7.00980392 L5.9,7.00980392 C5.75952381,7.00980392 5.61904762,6.86928105 5.61904762,6.72875817 L5.61904762,5.88562092 C5.61904762,5.74509804 5.75952381,5.60457516 5.9,5.60457516 L8.42857143,5.60457516 C8.56904762,5.60457516 8.70952381,5.74509804 8.70952381,5.88562092 L8.70952381,9.25816993 C8.70952381,9.25816993 8.70952381,9.39869281 8.56904762,9.53921569 C8.56904762,9.53921569 7.16428571,10.5228758 5.05714286,10.5228758 C2.24761905,10.5228758 0,8.2745098 0,5.46405229 C0.14047619,2.5130719 2.38809524,0.264705882 5.19761905,0.264705882 Z" id="XMLID_8_"></path>
                                    <path d="M10.9571429,0.545751634 C10.9571429,0.405228758 11.097619,0.264705882 11.2380952,0.264705882 L16.8571429,0.264705882 C16.997619,0.264705882 17.1380952,0.405228758 17.1380952,0.545751634 L17.1380952,1.38888889 C17.1380952,1.52941176 16.997619,1.66993464 16.8571429,1.66993464 L12.502381,1.66993464 L12.502381,4.48039216 L16.2952381,4.48039216 C16.4357143,4.48039216 16.5761905,4.62091503 16.5761905,4.76143791 L16.5761905,5.60457516 C16.5761905,5.74509804 16.4357143,5.88562092 16.2952381,5.88562092 L12.502381,5.88562092 L12.502381,8.83660131 L16.8571429,8.83660131 C16.997619,8.83660131 17.1380952,8.97712418 17.1380952,9.11764706 L17.1380952,9.82026144 C17.1380952,9.96078431 16.997619,10.1013072 16.8571429,10.1013072 L11.2380952,10.1013072 C11.097619,10.1013072 10.9571429,9.96078431 10.9571429,9.82026144 L10.9571429,0.545751634 Z" id="XMLID_10_"></path>
                                    <path d="M20.5095238,1.66993464 L18.2619048,1.66993464 C18.1214286,1.66993464 17.9809524,1.52941176 17.9809524,1.38888889 L17.9809524,0.545751634 C17.9809524,0.405228758 18.1214286,0.264705882 18.2619048,0.264705882 L24.302381,0.264705882 C24.4428571,0.264705882 24.5833333,0.405228758 24.5833333,0.545751634 L24.5833333,1.38888889 C24.5833333,1.52941176 24.4428571,1.66993464 24.302381,1.66993464 L22.0547619,1.66993464 L22.0547619,9.82026144 C22.0547619,9.96078431 21.9142857,10.1013072 21.7738095,10.1013072 L20.7904762,10.1013072 C20.65,10.1013072 20.5095238,9.96078431 20.5095238,9.82026144 L20.5095238,1.66993464 L20.5095238,1.66993464 Z" id="XMLID_13_"></path>
                                    <path d="M33.4333333,0.264705882 C36.2428571,0.264705882 38.4904762,2.5130719 38.4904762,5.32352941 C38.4904762,7.29084967 37.3666667,8.97712418 35.6809524,9.82026144 L37.3666667,12.4901961 C37.5071429,12.630719 37.3666667,12.9117647 37.0857143,12.9117647 L35.9619048,12.9117647 C35.9619048,12.9117647 35.8214286,12.9117647 35.6809524,12.7712418 L34.1357143,10.2418301 L33.2928571,10.2418301 C30.4833333,10.2418301 28.2357143,7.99346405 28.2357143,5.18300654 C28.5166667,2.5130719 30.6238095,0.264705882 33.4333333,0.264705882 Z M33.4333333,8.83660131 C35.4,8.83660131 37.0857143,7.1503268 37.0857143,5.18300654 C37.0857143,3.21568627 35.4,1.52941176 33.4333333,1.52941176 C31.4666667,1.52941176 29.7809524,3.21568627 29.7809524,5.18300654 C29.7809524,7.29084967 31.4666667,8.83660131 33.4333333,8.83660131 Z" id="XMLID_15_"></path>
                                    <path d="M40.4571429,0.545751634 C40.4571429,0.405228758 40.597619,0.264705882 40.7380952,0.264705882 L41.7214286,0.264705882 C41.8619048,0.264705882 42.002381,0.405228758 42.002381,0.545751634 L42.002381,6.30718954 C42.002381,7.7124183 42.8452381,8.83660131 44.3904762,8.83660131 C45.7952381,8.83660131 46.7785714,7.7124183 46.7785714,6.30718954 L46.7785714,0.545751634 C46.7785714,0.405228758 46.9190476,0.264705882 47.0595238,0.264705882 L48.0428571,0.264705882 C48.1833333,0.264705882 48.3238095,0.405228758 48.3238095,0.545751634 L48.3238095,6.44771242 C48.3238095,8.55555556 46.7785714,10.2418301 44.5309524,10.2418301 C42.2833333,10.2418301 40.7380952,8.55555556 40.7380952,6.44771242 L40.7380952,0.545751634 L40.4571429,0.545751634 Z" id="XMLID_23_"></path>
                                    <path d="M54.9261905,0.264705882 C57.7357143,0.264705882 59.9833333,2.5130719 59.9833333,5.32352941 C59.9833333,8.13398693 57.7357143,10.3823529 54.9261905,10.3823529 C52.1166667,10.3823529 49.8690476,8.13398693 49.8690476,5.32352941 C49.8690476,2.5130719 52.1166667,0.264705882 54.9261905,0.264705882 Z M54.9261905,8.83660131 C56.8928571,8.83660131 58.5785714,7.1503268 58.5785714,5.18300654 C58.5785714,3.21568627 56.8928571,1.52941176 54.9261905,1.52941176 C52.9595238,1.52941176 51.2738095,3.21568627 51.2738095,5.18300654 C51.2738095,7.29084967 52.9595238,8.83660131 54.9261905,8.83660131 Z" id="XMLID_25_"></path>
                                    <path d="M63.0738095,1.66993464 L60.8261905,1.66993464 C60.6857143,1.66993464 60.5452381,1.52941176 60.5452381,1.38888889 L60.5452381,0.545751634 C60.5452381,0.405228758 60.6857143,0.264705882 60.8261905,0.264705882 L66.8666667,0.264705882 C67.0071429,0.264705882 67.147619,0.405228758 67.147619,0.545751634 L67.147619,1.38888889 C67.147619,1.52941176 67.0071429,1.66993464 66.8666667,1.66993464 L64.6190476,1.66993464 L64.6190476,9.82026144 C64.6190476,9.96078431 64.4785714,10.1013072 64.3380952,10.1013072 L63.3547619,10.1013072 C63.2142857,10.1013072 63.0738095,9.96078431 63.0738095,9.82026144 L63.0738095,1.66993464 L63.0738095,1.66993464 Z" id="XMLID_38_"></path>
                                    <path d="M68.6928571,0.545751634 C68.6928571,0.405228758 68.8333333,0.264705882 68.9738095,0.264705882 L74.5928571,0.264705882 C74.7333333,0.264705882 74.8738095,0.405228758 74.8738095,0.545751634 L74.8738095,1.38888889 C74.8738095,1.52941176 74.7333333,1.66993464 74.5928571,1.66993464 L70.2380952,1.66993464 L70.2380952,4.48039216 L74.0309524,4.48039216 C74.1714286,4.48039216 74.3119048,4.62091503 74.3119048,4.76143791 L74.3119048,5.60457516 C74.3119048,5.74509804 74.1714286,5.88562092 74.0309524,5.88562092 L70.2380952,5.88562092 L70.2380952,8.83660131 L74.5928571,8.83660131 C74.7333333,8.83660131 74.8738095,8.97712418 74.8738095,9.11764706 L74.8738095,9.82026144 C74.8738095,9.96078431 74.7333333,10.1013072 74.5928571,10.1013072 L68.9738095,10.1013072 C68.8333333,10.1013072 68.6928571,9.96078431 68.6928571,9.82026144 L68.6928571,0.545751634 Z" id="XMLID_44_"></path>
                                </g>
                                <g id="XMLID_487_" transform="translate(133.857143, 248.320261)" fill-rule="nonzero" fill="#FFFFFF">
                                    <path d="M23.4595238,0.264705882 L1.26428571,0.264705882 C0.702380952,0.264705882 0.280952381,0.68627451 0.280952381,1.24836601 L0.280952381,32.5849673 C0.280952381,33.1470588 0.702380952,33.5686275 1.26428571,33.5686275 L2.10714286,33.5686275 L2.10714286,33.5686275 C2.10714286,34.130719 2.52857143,34.5522876 3.09047619,34.5522876 C3.65238095,34.5522876 4.07380952,34.130719 4.07380952,33.5686275 L4.07380952,33.5686275 L12.6428571,33.5686275 L20.7904762,33.5686275 L20.7904762,33.5686275 C20.7904762,34.130719 21.2119048,34.5522876 21.7738095,34.5522876 C22.3357143,34.5522876 22.7571429,34.130719 22.7571429,33.5686275 L22.7571429,33.5686275 L23.6,33.5686275 C24.1619048,33.5686275 24.5833333,33.1470588 24.5833333,32.5849673 L24.5833333,1.10784314 C24.4428571,0.68627451 23.8809524,0.264705882 23.4595238,0.264705882 Z M2.10714286,2.09150327 L22.4761905,2.09150327 L22.4761905,10.6633987 L12.6428571,10.6633987 L2.24761905,10.6633987 L2.24761905,2.09150327 L2.10714286,2.09150327 Z M11.6595238,31.6013072 L2.24761905,31.6013072 L2.24761905,12.630719 L11.6595238,12.630719 L11.6595238,31.6013072 Z M13.4857143,12.630719 L22.4761905,12.630719 L22.4761905,31.6013072 L13.4857143,31.6013072 L13.4857143,12.630719 Z" id="XMLID_491_"></path>
                                    <path d="M14.8904762,6.44771242 C14.8904762,5.88562092 14.4690476,5.46405229 13.9071429,5.46405229 L10.5357143,5.46405229 C9.97380952,5.46405229 9.55238095,5.88562092 9.55238095,6.44771242 C9.55238095,7.00980392 9.97380952,7.43137255 10.5357143,7.43137255 L13.9071429,7.43137255 C14.4690476,7.29084967 14.8904762,6.86928105 14.8904762,6.44771242 Z" id="XMLID_153_"></path>
                                    <path d="M16.4357143,19.0947712 C15.8738095,19.0947712 15.452381,19.5163399 15.452381,20.0784314 L15.452381,23.4509804 C15.452381,24.0130719 15.8738095,24.4346405 16.4357143,24.4346405 C16.997619,24.4346405 17.4190476,24.0130719 17.4190476,23.4509804 L17.4190476,20.0784314 C17.2785714,19.5163399 16.8571429,19.0947712 16.4357143,19.0947712 Z" id="XMLID_144_"></path>
                                    <path d="M8.85,24.2941176 C9.41190476,24.2941176 9.83333333,23.872549 9.83333333,23.3104575 L9.83333333,20.0784314 C9.83333333,19.5163399 9.41190476,19.0947712 8.85,19.0947712 C8.28809524,19.0947712 7.86666667,19.5163399 7.86666667,20.0784314 L7.86666667,23.4509804 C7.86666667,23.872549 8.28809524,24.2941176 8.85,24.2941176 Z" id="XMLID_135_"></path>
                                </g>
                            </g>
                        </g>
                    </g>
                </g>
            </g>
        </g>
    </g>
</svg>