<?xml version="1.0" encoding="UTF-8"?>
<svg width="281px" height="430px" viewBox="0 0 281 430" version="1.1" xmlns="http://www.w3.org/2000/svg" xmlns:xlink="http://www.w3.org/1999/xlink">
    <!-- Generator: Sketch 43.1 (39012) - http://www.bohemiancoding.com/sketch -->
    <title>Step-3</title>
    <desc>Created with Sketch.</desc>
    <defs></defs>
    <g id="Static-Pages" stroke="none" stroke-width="1" fill="none" fill-rule="evenodd">
        <g id="Homepage" transform="translate(-1316.000000, -6289.000000)">
            <g id="Steps-Section" transform="translate(210.000000, 5902.000000)">
                <g id="Step-3" transform="translate(1030.000000, 386.000000)">
                    <g id="Info" transform="translate(51.000000, 0.572087)">
                        <g id="Step-3" transform="translate(25.000000, 0.427913)">
                            <g id="XMLID_574_" transform="translate(25.327272, 188.300654)" fill-rule="nonzero" fill="#FFF3EA">
                                <ellipse id="Oval" cx="120.02313" cy="120.428105" rx="119.741716" ry="119.584967"></ellipse>
                            </g>
                            <g id="XMLID_567_" transform="translate(24.913135, 188.300654)" fill-rule="nonzero" fill="#B0AFAE">
                                <path d="M239.334741,120.428105 C238.91262,170.03268 207.67565,215.281046 160.679489,232.143791 C113.964742,248.866013 60.6367633,234.251634 28.9776728,196.169935 C-2.82212476,157.947712 -7.18404389,102.019608 18.4246426,59.4411765 C44.1740363,16.5816993 95.3914093,-5.90196078 144.357469,4.0751634 C199.373933,15.3169935 238.91262,64.6405229 239.334741,120.428105 C239.334741,121.552288 241.163933,121.552288 241.023226,120.428105 C240.601104,70.4019608 209.223428,24.7320261 162.08656,7.30718954 C114.10545,-10.3986928 58.6668644,5.05882353 26.5856526,44.8267974 C-4.79202372,83.6111111 -8.73182165,139.539216 17.017572,182.25817 C42.9076726,225.398693 94.5471669,248.303922 143.935348,238.607843 C200.077469,227.506536 240.741812,177.199346 241.163933,120.428105 C241.163933,119.303922 239.334741,119.303922 239.334741,120.428105 Z" id="Shape"></path>
                            </g>
                            <g id="XMLID_564_" transform="translate(68.946464, 203.758170)" fill-rule="nonzero" fill="#FFFFFF">
                                <path d="M2.2513131,0.843137255 L0.984949482,195.888889 C15.6184846,207.69281 41.7899995,224.133987 78.9366657,223.571895 C111.580706,223.009804 135.500907,208.535948 148.868079,198.418301 L150.27515,1.82679739 L2.2513131,0.843137255 Z" id="Shape"></path>
                            </g>
                            <path d="M71.3384839,204.460784 L219.503028,205.72549 L217.814543,404.003268 L225.694139,397.539216 L227.52333,186.895425 C227.664038,175.372549 218.377371,166.098039 206.839391,165.957516 L84.7056555,164.833333 C73.1676758,164.69281 63.8810093,173.96732 63.7403022,185.349673 L61.9111103,394.166667 L69.6499991,400.911765 L71.3384839,204.460784 Z" id="XMLID_563_" fill="#F4F4F4" fill-rule="nonzero"></path>
                            <g id="XMLID_556_" transform="translate(132.264645, 187.888496)" fill-rule="nonzero" fill="#AAAAAA">
                                <path d="M1.68848483,1.9579088 C9.28666655,1.9579088 16.7441412,2.09843167 24.3423229,2.09843167 C25.4679795,2.09843167 25.4679795,0.412157165 24.3423229,0.412157165 C16.7441412,0.412157165 9.28666655,0.271634289 1.68848483,0.271634289 C0.562828276,0.271634289 0.562828276,1.9579088 1.68848483,1.9579088 L1.68848483,1.9579088 Z" id="Shape"></path>
                            </g>
                            <g id="XMLID_549_" transform="translate(140.707069, 175.653595)" fill-rule="nonzero" fill="#AAAAAA">
                                <path d="M8.44242413,4.0751634 C8.30171707,1.96732026 6.75393931,0.281045752 4.64333327,0.281045752 C2.53272724,0.281045752 0.844242413,1.96732026 0.844242413,4.0751634 C0.844242413,6.04248366 2.39202017,7.72875817 4.50262621,7.86928105 C6.75393931,8.00980392 8.30171707,6.32352941 8.44242413,4.0751634 C8.44242413,2.95098039 6.75393931,2.95098039 6.75393931,4.0751634 C6.61323224,6.74509804 2.67343431,6.60457516 2.67343431,4.0751634 C2.67343431,1.40522876 6.61323224,1.54575163 6.75393931,4.0751634 C6.75393931,5.19934641 8.5831312,5.19934641 8.44242413,4.0751634 Z" id="Shape"></path>
                            </g>
                            <g id="XMLID_518_" transform="translate(60.504040, 163.999608)" fill-rule="nonzero" fill="#B0AFAE">
                                <path d="M10.6937372,41.4448369 C58.9562619,41.8664055 107.218787,42.1474513 155.481311,42.5690199 C156.325554,42.5690199 157.45121,42.428497 158.295453,42.5690199 C159.421109,42.7095428 157.591917,41.0232683 157.873331,42.0069284 C158.295453,43.8337258 157.873331,46.2226147 157.873331,48.1899349 C157.732624,58.5886278 157.732624,68.8467977 157.591917,79.2454905 C157.310503,111.284706 157.169796,143.323922 156.888382,175.363138 C156.747675,197.00366 156.606968,218.50366 156.466261,240.144183 C156.466261,240.987321 157.45121,241.268366 158.014038,240.706275 C160.687473,238.317386 165.330806,236.209543 166.175048,232.836994 C166.59717,231.150719 166.175048,228.902353 166.175048,227.216079 C166.175048,218.784706 166.315755,210.353334 166.315755,202.062484 C166.456463,175.082092 166.737877,148.242223 166.878584,121.26183 C167.019291,95.686667 167.300705,69.9709807 167.441412,44.3958173 C167.582119,29.6409153 171.099796,9.26509834 153.792826,2.66052318 C147.742422,0.412157165 140.425655,1.11477154 133.95313,1.11477154 C121.570908,0.974248668 109.188685,0.974248668 96.8064634,0.833725792 C73.44909,0.693202916 49.9510095,0.412157165 26.593636,0.271634289 C15.8998988,0.271634289 6.05040396,5.04941207 2.95484845,16.0101964 C1.68848483,20.5069284 2.11060603,25.5657519 2.11060603,30.2030068 C1.96989896,52.2650983 1.8291919,74.186667 1.68848483,96.2487585 C1.54777776,124.634379 1.26636362,153.160523 1.12565655,181.546144 C0.984949482,192.08536 0.984949482,202.765098 0.844242413,213.304314 C0.844242413,218.082092 -0.422121207,224.82719 0.703535345,229.464445 C1.54777776,232.836994 6.19111103,235.366406 8.72383827,237.474249 C9.28666655,237.895817 10.271616,237.614772 10.271616,236.912157 C10.6937372,179.578824 11.1158584,122.104968 11.5379797,64.7716343 C11.5379797,56.7618304 11.6786867,48.7520264 11.6786867,40.6016996 C11.6786867,39.4775166 9.99020189,39.4775166 9.99020189,40.6016996 C9.56808069,97.935033 9.14595948,155.408889 8.72383827,212.742223 C8.72383827,220.752026 8.5831312,228.76183 8.5831312,236.912157 C9.14595948,236.771634 9.56808069,236.490589 10.130909,236.350066 C7.31676758,233.961177 3.37696965,232.134379 2.53272724,228.76183 C2.11060603,226.935033 2.53272724,224.265098 2.53272724,222.438301 C2.53272724,214.147451 2.67343431,205.716079 2.67343431,197.425229 C2.81414138,171.709543 3.09555552,146.134379 3.23626259,120.418693 C3.37696965,95.8271898 3.65838379,71.2356866 3.79909086,46.6441833 C3.93979793,29.9219611 -0.140707069,3.08209181 24.0609088,2.09843167 C41.5085853,1.3958173 59.237676,2.37947743 76.8260596,2.5200003 C99.0577765,2.66052318 121.4302,2.66052318 143.661917,2.94156893 C156.044139,3.08209181 165.61222,10.3892813 166.034341,23.4579088 C166.175048,28.0951637 166.034341,32.8729415 165.893634,37.5101964 C165.752927,60.1343794 165.61222,82.7585624 165.330806,105.382745 C165.190099,132.222615 164.908685,159.062484 164.767978,185.902353 C164.627271,196.160523 164.627271,206.418693 164.486564,216.53634 C164.486564,221.033072 165.752927,228.199739 164.345856,232.555948 C163.501614,235.366406 159.280402,237.333726 156.747675,239.722615 C157.310503,239.863138 157.732624,240.144183 158.295453,240.284706 C158.717574,182.389281 159.139695,124.634379 159.561816,66.7389546 C159.561816,58.4481049 159.702523,50.1572552 159.702523,41.8664055 C159.702523,41.4448369 159.280402,41.0232683 158.858281,41.0232683 C115.661211,40.7422225 72.4641405,40.4611768 29.4077774,40.0396081 C23.2166664,40.0396081 17.0255553,39.8990853 10.8344443,39.8990853 C9.56808069,39.6180395 9.56808069,41.4448369 10.6937372,41.4448369 Z" id="Shape"></path>
                            </g>
                            <g id="XMLID_502_" transform="translate(245.823233, 196.732026)" fill-rule="nonzero" fill="#EA6EA6">
                                <g id="XMLID_513_" transform="translate(7.449491, 0.000000)">
                                    <g id="XMLID_516_">
                                        <path d="M1.8291919,18.5490196 C1.26636362,18.5490196 0.703535345,18.127451 0.703535345,17.4248366 L0.422121207,1.54575163 C0.422121207,0.983660131 0.844242413,0.421568627 1.54777776,0.421568627 C2.11060603,0.421568627 2.67343431,0.843137255 2.67343431,1.54575163 L2.95484845,17.4248366 C2.95484845,17.9869281 2.53272724,18.5490196 1.8291919,18.5490196 Z" id="XMLID_517_"></path>
                                    </g>
                                </g>
                                <g id="XMLID_510_" transform="translate(0.000000, 8.019215)">
                                    <g id="XMLID_511_">
                                        <path d="M1.25838024,2.66052318 C0.695551965,2.66052318 0.132723689,2.23895455 0.132723689,1.53634017 C0.132723689,0.974248668 0.554844896,0.412157165 1.25838024,0.412157165 L17.158279,0.131111413 C17.7211073,0.131111413 18.2839356,0.55268004 18.2839356,1.25529442 C18.2839356,1.81738592 17.8618144,2.37947743 17.158279,2.37947743 L1.25838024,2.66052318 Z" id="XMLID_512_"></path>
                                    </g>
                                </g>
                            </g>
                            <g id="XMLID_473_" transform="translate(21.106060, 210.372157)" fill-rule="nonzero" fill="#9E7400">
                                <g id="XMLID_474_">
                                    <path d="M6.19111103,12.6376474 C2.81414138,12.6376474 0,9.82718984 0,6.45464082 C0,3.08209181 2.81414138,0.271634289 6.19111103,0.271634289 C9.56808069,0.271634289 12.3822221,3.08209181 12.3822221,6.45464082 C12.3822221,9.82718984 9.70878776,12.6376474 6.19111103,12.6376474 Z M6.19111103,1.9579088 C3.79909086,1.9579088 1.68848483,3.92522906 1.68848483,6.45464082 C1.68848483,8.84352971 3.65838379,10.9513729 6.19111103,10.9513729 C8.5831312,10.9513729 10.6937372,8.98405259 10.6937372,6.45464082 C10.6937372,4.06575194 8.72383827,1.9579088 6.19111103,1.9579088 Z" id="XMLID_475_"></path>
                                </g>
                            </g>
                            <g id="XMLID_438_" transform="translate(139.299998, 125.065359)" fill-rule="nonzero" fill="#883955">
                                <g id="XMLID_470_" transform="translate(9.849495, 0.000000)">
                                    <g id="XMLID_471_">
                                        <path d="M1.68848483,6.88562092 C1.26636362,6.88562092 0.844242413,6.60457516 0.844242413,6.04248366 L0.844242413,1.68627451 C0.844242413,1.26470588 1.12565655,0.843137255 1.68848483,0.843137255 C2.2513131,0.843137255 2.53272724,1.12418301 2.53272724,1.68627451 L2.53272724,6.04248366 C2.53272724,6.60457516 2.11060603,6.88562092 1.68848483,6.88562092 Z" id="XMLID_472_"></path>
                                    </g>
                                </g>
                                <g id="XMLID_467_" transform="translate(2.814141, 2.810458)">
                                    <g id="XMLID_468_">
                                        <path d="M4.92474741,5.33986928 C4.78404034,5.33986928 4.50262621,5.19934641 4.36191914,5.05882353 L1.26636362,1.96732026 C1.12565655,1.82679739 0.984949482,1.68627451 0.984949482,1.40522876 C0.984949482,1.12418301 1.12565655,0.983660131 1.26636362,0.843137255 C1.40707069,0.702614379 1.54777776,0.562091503 1.8291919,0.562091503 C1.96989896,0.562091503 2.2513131,0.702614379 2.39202017,0.843137255 L5.48757569,3.93464052 C5.76898983,4.21568627 5.76898983,4.77777778 5.48757569,5.05882353 C5.34686862,5.33986928 5.06545448,5.33986928 4.92474741,5.33986928 Z" id="XMLID_469_"></path>
                                    </g>
                                </g>
                                <g id="XMLID_454_" transform="translate(0.000000, 9.836601)">
                                    <g id="XMLID_465_">
                                        <path d="M1.54777776,2.10784314 C1.12565655,2.10784314 0.703535345,1.82679739 0.703535345,1.26470588 C0.703535345,0.843137255 0.984949482,0.421568627 1.54777776,0.421568627 L5.90969689,0.421568627 C6.3318181,0.421568627 6.75393931,0.702614379 6.75393931,1.26470588 C6.75393931,1.68627451 6.47252517,2.10784314 5.90969689,2.10784314 L1.54777776,2.10784314 Z" id="XMLID_466_"></path>
                                    </g>
                                </g>
                                <g id="XMLID_451_" transform="translate(2.814141, 14.052288)">
                                    <g id="XMLID_452_">
                                        <path d="M1.26636362,4.77777778 C1.12565655,4.77777778 0.844242413,4.6372549 0.703535345,4.49673203 C0.562828276,4.35620915 0.422121207,4.21568627 0.422121207,3.93464052 C0.422121207,3.79411765 0.562828276,3.5130719 0.703535345,3.37254902 L3.79909086,0.281045752 C3.93979793,0.140522876 4.080505,0 4.36191914,0 C4.50262621,0 4.78404034,0.140522876 4.92474741,0.281045752 C5.20616155,0.562091503 5.20616155,1.12418301 4.92474741,1.40522876 L1.8291919,4.49673203 C1.68848483,4.77777778 1.54777776,4.77777778 1.26636362,4.77777778 Z" id="XMLID_453_"></path>
                                    </g>
                                </g>
                                <g id="XMLID_448_" transform="translate(9.849495, 15.457516)">
                                    <g id="XMLID_449_">
                                        <path d="M0.984949482,6.46405229 C0.562828276,6.46405229 0.140707069,6.18300654 0.140707069,5.62091503 L0.140707069,1.26470588 C0.140707069,0.843137255 0.422121207,0.421568627 0.984949482,0.421568627 C1.54777776,0.421568627 1.8291919,0.702614379 1.8291919,1.26470588 L1.8291919,5.62091503 C1.8291919,6.18300654 1.40707069,6.46405229 0.984949482,6.46405229 Z" id="XMLID_450_"></path>
                                    </g>
                                </g>
                                <g id="XMLID_445_" transform="translate(13.656569, 14.052288)">
                                    <g id="XMLID_446_">
                                        <path d="M4.21322869,5.33986928 C4.07252162,5.33986928 3.79110748,5.19934641 3.65040041,5.05882353 L0.554844896,1.96732026 C0.414137827,1.82679739 0.273430758,1.68627451 0.273430758,1.40522876 C0.273430758,1.26470588 0.414137827,0.983660131 0.554844896,0.843137255 C0.695551965,0.702614379 0.836259034,0.562091503 1.11767317,0.562091503 C1.25838024,0.562091503 1.53979438,0.702614379 1.68050145,0.843137255 L4.77605696,3.93464052 C4.91676403,4.0751634 5.0574711,4.21568627 5.0574711,4.49673203 C5.0574711,4.6372549 4.91676403,4.91830065 4.77605696,5.05882353 C4.63534989,5.19934641 4.49464283,5.33986928 4.21322869,5.33986928 Z" id="XMLID_447_"></path>
                                    </g>
                                </g>
                                <g id="XMLID_442_" transform="translate(15.477778, 9.836601)">
                                    <g id="XMLID_443_">
                                        <path d="M1.12565655,2.66993464 C0.703535345,2.66993464 0.281414138,2.38888889 0.281414138,1.82679739 C0.281414138,1.40522876 0.562828276,0.983660131 1.12565655,0.983660131 L5.48757569,0.983660131 C5.90969689,0.983660131 6.3318181,1.26470588 6.3318181,1.82679739 C6.3318181,2.24836601 6.05040396,2.66993464 5.48757569,2.66993464 L1.12565655,2.66993464 Z" id="XMLID_444_"></path>
                                    </g>
                                </g>
                                <g id="XMLID_439_" transform="translate(14.070707, 3.803529)">
                                    <g id="XMLID_440_">
                                        <path d="M1.12565655,4.90888919 C0.984949482,4.90888919 0.703535345,4.76836631 0.562828276,4.62784344 C0.422121207,4.48732056 0.281414138,4.34679769 0.281414138,4.06575194 C0.281414138,3.92522906 0.422121207,3.64418331 0.562828276,3.50366043 L3.65838379,0.412157165 C3.79909086,0.271634289 3.93979793,0.131111413 4.22121207,0.131111413 C4.36191914,0.131111413 4.64333327,0.271634289 4.78404034,0.412157165 C5.06545448,0.693202916 5.06545448,1.25529442 4.78404034,1.53634017 L1.68848483,4.62784344 C1.54777776,4.76836631 1.40707069,4.90888919 1.12565655,4.90888919 Z" id="XMLID_441_"></path>
                                    </g>
                                </g>
                            </g>
                            <g id="XMLID_402_" transform="translate(66.132322, 54.803922)" fill-rule="nonzero" fill="#4DB0F4">
                                <g id="XMLID_435_" transform="translate(7.035353, 0.000000)">
                                    <g id="XMLID_436_">
                                        <path d="M2.11060603,18.9705882 C1.54777776,18.9705882 0.984949482,18.4084967 0.984949482,17.8464052 L1.26636362,1.96732026 C1.26636362,1.40522876 1.8291919,0.843137255 2.39202017,0.843137255 C2.95484845,0.843137255 3.51767672,1.40522876 3.51767672,1.96732026 L3.23626259,17.8464052 C3.23626259,18.5490196 2.81414138,18.9705882 2.11060603,18.9705882 Z" id="XMLID_437_"></path>
                                    </g>
                                </g>
                                <g id="XMLID_403_" transform="translate(0.000000, 8.431373)">
                                    <g id="XMLID_433_">
                                        <path d="M1.40707069,2.38888889 C0.844242413,2.38888889 0.281414138,1.82679739 0.281414138,1.26470588 C0.281414138,0.702614379 0.844242413,0.140522876 1.40707069,0.140522876 L17.3069695,0.421568627 C17.8697978,0.421568627 18.432626,0.983660131 18.432626,1.54575163 C18.432626,2.10784314 17.8697978,2.66993464 17.3069695,2.66993464 L1.40707069,2.38888889 Z" id="XMLID_434_"></path>
                                    </g>
                                </g>
                            </g>
                            <g id="XMLID_251_" transform="translate(215.281815, 85.718954)" fill-rule="nonzero" fill="#883955">
                                <g id="XMLID_394_">
                                    <path d="M6.47252517,12.7875817 C3.09555552,12.7875817 0.281414138,9.97712418 0.281414138,6.60457516 C0.281414138,3.23202614 3.09555552,0.421568627 6.47252517,0.421568627 C9.84949482,0.421568627 12.6636362,3.23202614 12.6636362,6.60457516 C12.5229291,9.97712418 9.84949482,12.7875817 6.47252517,12.7875817 Z M6.47252517,2.24836601 C4.080505,2.24836601 1.96989896,4.21568627 1.96989896,6.74509804 C1.96989896,9.13398693 3.93979793,11.2418301 6.47252517,11.2418301 C8.86454534,11.2418301 10.9751514,9.2745098 10.9751514,6.74509804 C10.8344443,4.21568627 8.86454534,2.24836601 6.47252517,2.24836601 Z" id="XMLID_395_"></path>
                                </g>
                            </g>
                            <g id="XMLID_209_" transform="translate(216.688886, 12.647059)" fill-rule="nonzero" fill="#F1D302">
                                <g id="XMLID_245_" transform="translate(9.849495, 0.000000)">
                                    <g id="XMLID_249_">
                                        <path d="M1.12565655,6.74509804 C0.703535345,6.74509804 0.281414138,6.46405229 0.281414138,5.90196078 L0.281414138,1.54575163 C0.281414138,1.12418301 0.562828276,0.702614379 1.12565655,0.702614379 C1.68848483,0.702614379 1.96989896,0.983660131 1.96989896,1.54575163 L1.96989896,5.90196078 C1.8291919,6.32352941 1.54777776,6.74509804 1.12565655,6.74509804 Z" id="XMLID_250_"></path>
                                    </g>
                                </g>
                                <g id="XMLID_242_" transform="translate(2.814141, 2.810458)">
                                    <g id="XMLID_243_">
                                        <path d="M4.22121207,5.19934641 C4.080505,5.19934641 3.79909086,5.05882353 3.65838379,4.91830065 L0.562828276,1.82679739 C0.422121207,1.68627451 0.281414138,1.54575163 0.281414138,1.26470588 C0.281414138,0.983660131 0.422121207,0.843137255 0.562828276,0.702614379 C0.703535345,0.562091503 0.844242413,0.421568627 1.12565655,0.421568627 C1.26636362,0.421568627 1.54777776,0.562091503 1.68848483,0.702614379 L4.78404034,3.79411765 C5.06545448,4.0751634 5.06545448,4.6372549 4.78404034,4.91830065 C4.64333327,5.19934641 4.50262621,5.19934641 4.22121207,5.19934641 Z" id="XMLID_244_"></path>
                                    </g>
                                </g>
                                <g id="XMLID_236_" transform="translate(0.000000, 9.836601)">
                                    <g id="XMLID_237_">
                                        <path d="M0.844242413,1.82679739 C0.422121207,1.82679739 0,1.54575163 0,0.983660131 C0,0.562091503 0.281414138,0.140522876 0.844242413,0.140522876 L5.20616155,0.140522876 C5.62828276,0.140522876 6.05040396,0.421568627 6.05040396,0.983660131 C6.05040396,1.40522876 5.76898983,1.82679739 5.20616155,1.82679739 L0.844242413,1.82679739 Z" id="XMLID_238_"></path>
                                    </g>
                                </g>
                                <g id="XMLID_232_" transform="translate(2.400004, 13.640130)">
                                    <g id="XMLID_234_">
                                        <path d="M0.976966103,5.04941207 C0.836259034,5.04941207 0.554844896,4.90888919 0.414137827,4.76836631 C0.273430758,4.62784344 0.132723689,4.48732056 0.132723689,4.20627481 C0.132723689,4.06575194 0.273430758,3.78470618 0.414137827,3.64418331 L3.50969334,0.55268004 C3.65040041,0.412157165 3.79110748,0.271634289 4.07252162,0.271634289 C4.21322869,0.271634289 4.49464283,0.412157165 4.63534989,0.55268004 C4.91676403,0.833725792 4.91676403,1.3958173 4.63534989,1.67686305 L1.53979438,4.76836631 C1.39908731,4.90888919 1.25838024,5.04941207 0.976966103,5.04941207 Z" id="XMLID_235_"></path>
                                    </g>
                                </g>
                                <g id="XMLID_221_" transform="translate(8.442424, 15.457516)">
                                    <g id="XMLID_230_">
                                        <path d="M1.8291919,6.32352941 C1.40707069,6.32352941 0.984949482,6.04248366 0.984949482,5.48039216 L0.984949482,1.12418301 C0.984949482,0.702614379 1.26636362,0.281045752 1.8291919,0.281045752 C2.39202017,0.281045752 2.67343431,0.562091503 2.67343431,1.12418301 L2.67343431,5.48039216 C2.53272724,5.90196078 2.2513131,6.32352941 1.8291919,6.32352941 Z" id="XMLID_231_"></path>
                                    </g>
                                </g>
                                <g id="XMLID_216_" transform="translate(12.663636, 14.052288)">
                                    <g id="XMLID_217_">
                                        <path d="M4.50262621,5.05882353 C4.36191914,5.05882353 4.080505,4.91830065 3.93979793,4.77777778 L0.844242413,1.68627451 C0.703535345,1.54575163 0.562828276,1.40522876 0.562828276,1.12418301 C0.562828276,0.983660131 0.703535345,0.702614379 0.844242413,0.562091503 C0.984949482,0.421568627 1.12565655,0.281045752 1.40707069,0.281045752 C1.54777776,0.281045752 1.8291919,0.421568627 1.96989896,0.562091503 L5.06545448,3.65359477 C5.20616155,3.79411765 5.34686862,3.93464052 5.34686862,4.21568627 C5.34686862,4.35620915 5.20616155,4.6372549 5.06545448,4.77777778 C4.92474741,5.05882353 4.78404034,5.05882353 4.50262621,5.05882353 Z" id="XMLID_219_"></path>
                                    </g>
                                </g>
                                <g id="XMLID_213_" transform="translate(14.070707, 9.836601)">
                                    <g id="XMLID_214_">
                                        <path d="M1.8291919,2.52941176 C1.40707069,2.52941176 0.984949482,2.24836601 0.984949482,1.68627451 C0.984949482,1.26470588 1.26636362,0.843137255 1.8291919,0.843137255 L6.19111103,0.843137255 C6.61323224,0.843137255 7.03535345,1.12418301 7.03535345,1.68627451 C7.03535345,2.10784314 6.75393931,2.52941176 6.19111103,2.52941176 L1.8291919,2.52941176 Z" id="XMLID_215_"></path>
                                    </g>
                                </g>
                                <g id="XMLID_210_" transform="translate(13.656569, 2.810458)">
                                    <g id="XMLID_211_">
                                        <path d="M0.976966103,5.76143791 C0.836259034,5.76143791 0.554844896,5.62091503 0.414137827,5.48039216 C0.273430758,5.33986928 0.132723689,5.19934641 0.132723689,4.91830065 C0.132723689,4.77777778 0.273430758,4.49673203 0.414137827,4.35620915 L3.50969334,1.26470588 C3.65040041,1.12418301 3.79110748,0.983660131 4.07252162,0.983660131 C4.21322869,0.983660131 4.49464283,1.12418301 4.63534989,1.26470588 C4.91676403,1.54575163 4.91676403,2.10784314 4.63534989,2.38888889 L1.53979438,5.48039216 C1.25838024,5.62091503 1.11767317,5.76143791 0.976966103,5.76143791 Z" id="XMLID_212_"></path>
                                    </g>
                                </g>
                            </g>
                            <g id="XMLID_203_" transform="translate(104.123231, 0.000000)" fill-rule="nonzero" fill="#235789">
                                <g id="XMLID_204_">
                                    <path d="M6.19111103,12.7875817 C2.81414138,12.7875817 0,9.97712418 0,6.60457516 C0,3.23202614 2.81414138,0.421568627 6.19111103,0.421568627 C9.56808069,0.421568627 12.3822221,3.23202614 12.3822221,6.60457516 C12.3822221,9.97712418 9.70878776,12.7875817 6.19111103,12.7875817 Z M6.19111103,2.10784314 C3.79909086,2.10784314 1.68848483,4.0751634 1.68848483,6.60457516 C1.68848483,8.99346405 3.65838379,11.1013072 6.19111103,11.1013072 C8.5831312,11.1013072 10.6937372,9.13398693 10.6937372,6.60457516 C10.6937372,4.0751634 8.72383827,2.10784314 6.19111103,2.10784314 Z" id="XMLID_205_"></path>
                                </g>
                            </g>
                            <g id="XMLID_7_" transform="translate(0.000000, 97.953856)" fill-rule="nonzero">
                                <polygon id="XMLID_429_" fill="#883955" points="74.5747465 39.4775166 61.9111103 16.1507193 60.9261608 0.131111413 43.1970702 9.82718984 44.0413126 22.6147715 33.7696965 15.0265362 0.281414138 33.2945101 13.2264645 42.7095428 25.8901007 66.0363402"></polygon>
                                <polygon id="XMLID_428_" fill="#FFDCEC" points="56.8456558 47.3467977 26.593636 63.7879742 15.0556564 42.8500657 44.7448479 26.5494121 45.3076762 26.2683663"></polygon>
                                <polygon id="XMLID_427_" fill="#FFDCEC" points="72.4641405 38.6343794 58.2527265 46.3631376 46.8554539 25.4252291 47.4182822 25.1441833 61.0668679 17.6964709"></polygon>
                                <polygon id="XMLID_426_" fill="#FFDCEC" points="45.0262621 10.6703271 59.5190902 2.80104605 60.3633326 16.0101964 45.7297974 23.8794774"></polygon>
                                <polygon id="XMLID_425_" fill="#FFDCEC" points="33.9104036 16.7128108 44.3227267 24.5820918 13.5078786 41.304314 3.23626259 33.5755559"></polygon>
                            </g>
                            <g id="XMLID_4_" transform="translate(125.229291, 26.287189)" fill-rule="nonzero">
                                <path d="M29.4077774,0.131111413 C17.8697978,-0.712025842 7.59818172,4.06575194 2.67343431,9.54614409 C2.53272724,9.68666697 2.53272724,9.82718984 2.53272724,9.96771272 L0.281414138,39.8990853 C-0.140707069,45.8010461 3.09555552,50.5788238 7.73888879,54.935033 C12.3822221,59.2912421 18.432626,63.3664055 24.0609088,67.7226147 C24.3423229,67.8631376 24.6237371,68.0036604 24.9051512,67.7226147 C31.0962622,64.2095428 37.7094945,61.2585624 42.915656,57.6049676 C48.1218176,53.9513729 52.0616155,49.7356866 52.4837367,43.8337258 L54.7350498,13.9023532 C54.7350498,13.7618304 54.7350498,13.4807846 54.5943427,13.3402617 C50.3731307,7.29777808 40.9457571,0.974248668 29.4077774,0.131111413 Z" id="XMLID_422_" fill="#9E7400"></path>
                                <path d="M29.2670703,2.09843167 C39.9608076,2.94156893 48.96606,8.84352971 52.6244438,14.3239219 L50.3731307,43.6932029 C49.9510095,48.8925493 46.5740398,52.686667 41.6492924,56.1997389 C36.724545,59.5722879 30.533434,62.5232683 24.48303,65.8958173 C18.9954543,61.680131 13.2264645,57.7454905 9.00525241,53.6703271 C4.64333327,49.4546408 1.8291919,45.2389546 2.2513131,40.0396081 L4.50262621,10.6703271 C8.86454534,5.89254932 18.5733331,1.25529442 29.2670703,2.09843167 Z" id="XMLID_421_" fill="#FFF8C1"></path>
                                <g id="XMLID_414_" transform="translate(12.249498, 15.869674)">
                                    <path d="M16.0326225,0.281045752 C12.2335316,5.13977749e-13 8.85656196,2.95098039 8.57514782,6.74509804 C8.29373369,10.5392157 11.2485821,13.9117647 15.047673,14.1928105 C18.8467639,14.4738562 22.2237335,11.5228758 22.5051476,7.72875817 C22.6458547,3.93464052 19.8317133,0.562091503 16.0326225,0.281045752 Z" id="XMLID_420_" fill="#9E7400"></path>
                                    <path d="M15.7512083,2.24836601 C18.4246426,2.38888889 20.5352487,4.77777778 20.2538345,7.58823529 C20.1131275,10.2581699 17.7211073,12.3660131 14.9069659,12.0849673 C12.2335316,11.9444444 10.1229256,9.55555556 10.4043397,6.74509804 C10.6857539,4.0751634 13.077774,2.10784314 15.7512083,2.24836601 Z" id="XMLID_419_" fill="#FFF8C1"></path>
                                    <path d="M14.7662589,15.5980392 C11.1078751,15.3169935 7.73090541,15.7385621 5.19817817,16.7222222 C2.66545093,17.7058824 0.836259034,19.251634 0.695551965,21.3594771 L0.132723689,28.1045752 C0.132723689,28.5261438 0.414137827,28.8071895 0.836259034,28.9477124 C4.49464283,30.0718954 7.44949127,30.2124183 11.5299963,30.6339869 L15.7512083,30.9150327 C19.8317133,31.1960784 22.7865618,31.3366013 26.5856526,30.7745098 C27.0077739,30.7745098 27.4298951,30.3529412 27.4298951,30.0718954 L27.9927233,23.3267974 C28.1334304,21.3594771 26.5856526,19.3921569 24.1936325,18.127451 C21.6609052,16.7222222 18.4246426,15.879085 14.7662589,15.5980392 Z" id="XMLID_418_" fill="#9E7400"></path>
                                    <path d="M14.6255518,17.5653595 C17.8618144,17.8464052 20.8166628,18.6895425 22.7865618,19.6732026 C24.7564607,20.7973856 25.7414102,22.0620915 25.6007032,23.1862745 L25.178582,28.9477124 C22.0830264,29.2287582 19.5502992,29.0882353 15.7512083,28.9477124 L11.5299963,28.6666667 C7.87161248,28.3856209 5.19817817,28.1045752 2.24332972,27.2614379 L2.66545093,21.5 C2.806158,20.2352941 3.93181455,19.1111111 6.04242058,18.4084967 C8.43444076,17.5653595 11.3892892,17.2843137 14.6255518,17.5653595 Z" id="XMLID_415_" fill="#FFF8C1"></path>
                                </g>
                            </g>
                            <g id="XMLID_5_" transform="translate(227.945452, 105.392157)">
                                <path d="M46.8554539,31.4771242 L45.1669691,30.3529412 L49.9510095,21.9215686 C53.3279791,15.879085 51.6394943,8.43137255 46.0112115,5.33986928 L39.9608076,1.96732026 C34.4732319,-1.12418301 27.1564643,1.26470588 23.7794946,7.30718954 L18.9954543,15.7385621 L18.9954543,15.7385621 L17.1662624,15.0359477 C14.7742422,14.0522876 12.1008079,15.0359477 10.8344443,17.2843137 L1.12565655,34.5686275 C-0.140707069,36.8169935 0.562828276,39.627451 2.53272724,41.1732026 L15.7591917,50.869281 C15.8998988,51.0098039 16.0406059,51.1503268 16.32202,51.2908497 C16.4627271,51.4313725 16.6034341,51.4313725 16.8848483,51.5718954 L32.0812117,57.754902 C34.4732319,58.7385621 37.1466662,57.754902 38.4130298,55.5065359 L48.1218176,38.2222222 C49.6695953,35.8333333 48.96606,33.0228758 46.8554539,31.4771242 Z M23.9202017,43.9836601 L18.7140402,41.0326797 L23.3573734,34.7091503 C22.7945452,33.5849673 22.6538381,32.3202614 23.3573734,31.1960784 C24.3423229,29.369281 26.593636,28.8071895 28.4228279,29.7908497 C30.2520198,30.7745098 30.8148481,33.0228758 29.8298986,34.8496732 C29.1263633,35.9738562 28.0007067,36.6764706 26.7343431,36.6764706 L23.9202017,43.9836601 Z M33.4882824,21.7810458 C33.3475753,21.6405229 33.2068683,21.5 32.9254541,21.3594771 C32.7847471,21.2189542 32.64404,21.2189542 32.3626259,21.0784314 L25.0458583,18.127451 L29.4077774,10.3986928 C30.8148481,7.72875817 34.1918177,6.18300654 36.5838379,7.58823529 L42.7749489,10.9607843 C45.1669691,12.3660131 45.7297974,16.0196078 44.1820196,18.6895425 L39.8201005,26.4183007 L39.8201005,26.4183007 L33.4882824,21.7810458 Z" id="XMLID_409_" fill="#C0E6FF" fill-rule="nonzero"></path>
                                <path d="M46.8554539,31.4771242 L45.1669691,30.3529412 L49.9510095,21.9215686 C53.3279791,15.879085 51.6394943,8.43137255 46.0112115,5.33986928 L39.9608076,1.96732026 C34.4732319,-1.12418301 27.1564643,1.26470588 23.7794946,7.30718954 L18.9954543,15.7385621 L17.1662624,15.0359477 C14.7742422,14.0522876 12.1008079,15.0359477 10.8344443,17.2843137 L1.12565655,34.5686275 C-0.140707069,36.8169935 0.562828276,39.627451 2.53272724,41.1732026 L15.7591917,50.869281 C15.8998988,51.0098039 16.0406059,51.1503268 16.32202,51.2908497 C16.4627271,51.4313725 16.6034341,51.4313725 16.8848483,51.5718954 L32.0812117,57.754902 C34.4732319,58.7385621 37.1466662,57.754902 38.4130298,55.5065359 L48.1218176,38.2222222 C49.6695953,35.8333333 48.96606,33.0228758 46.8554539,31.4771242 Z M23.9202017,43.9836601 L18.7140402,41.0326797 L23.3573734,34.7091503 C22.7945452,33.5849673 22.6538381,32.3202614 23.3573734,31.1960784 C24.3423229,29.369281 26.593636,28.8071895 28.4228279,29.7908497 C30.2520198,30.7745098 30.8148481,33.0228758 29.8298986,34.8496732 C29.1263633,35.9738562 28.0007067,36.6764706 26.7343431,36.6764706 L23.9202017,43.9836601 Z M33.4882824,21.7810458 C33.3475753,21.6405229 33.2068683,21.5 32.9254541,21.3594771 C32.7847471,21.2189542 32.64404,21.2189542 32.3626259,21.0784314 L25.0458583,18.127451 L29.4077774,10.3986928 C30.8148481,7.72875817 34.1918177,6.18300654 36.5838379,7.58823529 L42.7749489,10.9607843 C45.1669691,12.3660131 45.7297974,16.0196078 44.1820196,18.6895425 L39.8201005,26.4183007 L39.8201005,26.4183007 L33.4882824,21.7810458 Z" id="XMLID_404_" stroke="#235789" stroke-width="1.5"></path>
                            </g>
                            <g id="XMLID_199_" transform="translate(120.593941, 227.647059)" fill-rule="nonzero">
                                <ellipse id="XMLID_386_" fill="#00BFA3" cx="24.0529254" cy="23.748366" rx="23.7794946" ry="23.748366"></ellipse>
                                <path d="M19.4095921,34.0065359 L19.4095921,34.0065359 C18.8467639,34.0065359 18.2839356,33.7254902 17.8618144,33.3039216 L10.6857539,25.4346405 C9.84151144,24.5915033 9.98221851,23.1862745 10.8264609,22.4836601 C11.6707033,21.6405229 13.077774,21.7810458 13.7813094,22.624183 L19.5502992,28.8071895 L34.3245414,14.0522876 C35.1687838,13.2091503 36.4351475,13.2091503 37.2793899,14.0522876 C38.1236323,14.8954248 38.1236323,16.1601307 37.2793899,17.003268 L20.9573699,33.3039216 C20.5352487,33.7254902 19.9724204,34.0065359 19.4095921,34.0065359 Z" id="XMLID_384_" fill="#FFFFFF"></path>
                            </g>
                            <g id="XMLID_167_" transform="translate(82.603033, 258.149934)" fill-rule="nonzero" fill="#AAAAAA">
                                <path d="M30.9475718,0.55268004 C24.1936325,0.55268004 17.2989861,0.131111413 10.4043397,0.412157165 C3.93181455,0.693202916 1.53979438,2.80104605 1.39908731,8.98405259 C0.976966103,23.0363402 1.11767317,37.2291506 0.976966103,51.4219611 C0.836259034,69.9709807 0.695551965,88.3794774 0.554844896,106.928497 C0.414137827,115.781438 -1.274347,125.899085 10.8264609,126.180131 C43.1890868,127.163791 75.5517126,126.6017 107.914338,126.742223 C111.713429,126.742223 116.075348,127.304314 119.311611,125.055948 C123.110702,122.386013 122.688581,118.170327 122.688581,114.095164 C122.829288,97.3729415 122.969995,80.6507193 123.110702,63.928497 C123.251409,46.3631376 123.392116,28.7977781 123.532823,11.0918957 C123.532823,5.75202645 123.251409,1.9579088 116.778884,1.11477154 C108.899288,0.131111413 100.597571,0.833725792 92.717975,0.833725792 C91.5923185,0.833725792 91.5923185,2.5200003 92.717975,2.5200003 C99.4719143,2.5200003 106.225854,2.5200003 112.979793,2.66052318 C117.623126,2.80104605 121.562924,3.50366043 121.703631,8.84352971 L121.703631,11.935033 C121.562924,25.5657519 121.422217,39.055948 121.422217,52.686667 C121.28151,69.6899349 121.140803,86.6932029 121.000096,103.696471 C121.000096,108.193203 121.140803,112.830458 120.859389,117.32719 C120.577975,122.667059 115.51252,124.774902 110.72848,124.774902 C80.47646,124.634379 50.3651473,124.353334 20.1131275,124.212811 C16.7361578,124.212811 12.7963599,124.774902 9.41939024,124.212811 C0.836259034,122.807582 2.10262265,117.748758 2.10262265,112.549412 C2.24332972,97.935033 2.38403679,83.3206539 2.52474386,68.5657519 C2.66545093,50.7193467 2.806158,33.0134644 2.94686507,15.1670591 C2.94686507,9.68666697 1.68050145,3.36313756 8.43444076,1.9579088 C15.3290871,0.55268004 23.6308042,1.9579088 30.6661576,1.9579088 C32.0732283,2.37947743 32.0732283,0.55268004 30.9475718,0.55268004 L30.9475718,0.55268004 Z" id="Shape"></path>
                            </g>
                            <g id="XMLID_166_" transform="translate(98.494948, 297.908497)" fill-rule="nonzero" fill="#AAAAAA">
                                <path d="M1.68848483,2.38888889 C31.3776764,2.66993464 61.0668679,2.81045752 90.6153524,3.09150327 C91.7410089,3.09150327 91.7410089,1.40522876 90.6153524,1.40522876 C60.9261608,1.12418301 31.2369693,0.983660131 1.68848483,0.702614379 C0.562828276,0.562091503 0.562828276,2.38888889 1.68848483,2.38888889 L1.68848483,2.38888889 Z" id="Shape"></path>
                            </g>
                            <g id="XMLID_165_" transform="translate(98.494948, 316.176471)" fill-rule="nonzero" fill="#B0AFAE">
                                <path d="M1.68848483,2.24836601 C31.3776764,2.52941176 61.0668679,2.66993464 90.6153524,2.95098039 C91.7410089,2.95098039 91.7410089,1.26470588 90.6153524,1.26470588 C60.9261608,0.983660131 31.2369693,0.843137255 1.68848483,0.562091503 C0.562828276,0.421568627 0.562828276,2.24836601 1.68848483,2.24836601 L1.68848483,2.24836601 Z" id="Shape"></path>
                            </g>
                            <g id="XMLID_164_" transform="translate(98.494948, 335.437516)" fill-rule="nonzero" fill="#B0AFAE">
                                <path d="M1.68848483,2.09843167 C31.3776764,2.37947743 61.0668679,2.5200003 90.6153524,2.80104605 C91.7410089,2.80104605 91.7410089,1.11477154 90.6153524,1.11477154 C60.9261608,0.833725792 31.2369693,0.693202916 1.68848483,0.412157165 C0.562828276,0.271634289 0.562828276,2.09843167 1.68848483,2.09843167 L1.68848483,2.09843167 Z" id="Shape"></path>
                            </g>
                            <g id="XMLID_51_" transform="translate(98.494948, 355.522876)" fill-rule="nonzero" fill="#B0AFAE">
                                <path d="M1.68848483,1.82679739 C31.3776764,2.10784314 61.0668679,2.24836601 90.6153524,2.52941176 C91.7410089,2.52941176 91.7410089,0.843137255 90.6153524,0.843137255 C60.9261608,0.562091503 31.2369693,0.421568627 1.68848483,0.140522876 C0.562828276,0.140522876 0.562828276,1.82679739 1.68848483,1.82679739 L1.68848483,1.82679739 Z" id="Shape"></path>
                            </g>
                        </g>
                    </g>
                </g>
            </g>
        </g>
    </g>
</svg>